<svg id="SvgjsSvg1464" width="1317.5" height="381" xmlns="http://www.w3.org/2000/svg" version="1.1" xmlns:xlink="http://www.w3.org/1999/xlink" xmlns:svgjs="http://svgjs.com/svgjs"><defs id="SvgjsDefs1465"><pattern patternUnits="userSpaceOnUse" id="pattern_mark_0" width="300" height="300"><text x="150" y="100" fill="rgba(229,229,229,0.8)" font-size="18" transform="rotate(-45, 150, 150)" style="dominant-baseline: middle; text-anchor: middle;">@Kingzhy</text></pattern><pattern patternUnits="userSpaceOnUse" id="pattern_mark_1" width="300" height="300"><text x="150" y="200" fill="rgba(229,229,229,0.8)" font-size="18" transform="rotate(-45, 150, 150)" style="dominant-baseline: middle; text-anchor: middle;"></text></pattern><marker id="SvgjsMarker1529" markerWidth="13" markerHeight="9" refX="9.5" refY="4.5" viewBox="0 0 13 9" orient="auto" markerUnits="userSpaceOnUse" stroke-dasharray="0,0"><path id="SvgjsPath1530" d="M0,0 L13,4.5 L0,9 L0,0" fill="#323232" stroke="#323232" stroke-width="1"></path></marker><marker id="SvgjsMarker1533" markerWidth="13" markerHeight="9" refX="9.5" refY="4.5" viewBox="0 0 13 9" orient="auto" markerUnits="userSpaceOnUse" stroke-dasharray="0,0"><path id="SvgjsPath1534" d="M0,0 L13,4.5 L0,9 L0,0" fill="#323232" stroke="#323232" stroke-width="1"></path></marker><marker id="SvgjsMarker1655" markerWidth="13" markerHeight="9" refX="9.5" refY="4.5" viewBox="0 0 13 9" orient="auto" markerUnits="userSpaceOnUse" stroke-dasharray="0,0"><path id="SvgjsPath1656" d="M0,0 L13,4.5 L0,9 L0,0" fill="#323232" stroke="#323232" stroke-width="1"></path></marker><marker id="SvgjsMarker1659" markerWidth="13" markerHeight="9" refX="9.5" refY="4.5" viewBox="0 0 13 9" orient="auto" markerUnits="userSpaceOnUse" stroke-dasharray="0,0"><path id="SvgjsPath1660" d="M0,0 L13,4.5 L0,9 L0,0" fill="#323232" stroke="#323232" stroke-width="1"></path></marker><marker id="SvgjsMarker1663" markerWidth="13" markerHeight="9" refX="9.5" refY="4.5" viewBox="0 0 13 9" orient="auto" markerUnits="userSpaceOnUse" stroke-dasharray="0,0"><path id="SvgjsPath1664" d="M0,0 L13,4.5 L0,9 L0,0" fill="#323232" stroke="#323232" stroke-width="1"></path></marker><marker id="SvgjsMarker1667" markerWidth="13" markerHeight="9" refX="9.5" refY="4.5" viewBox="0 0 13 9" orient="auto" markerUnits="userSpaceOnUse" stroke-dasharray="0,0"><path id="SvgjsPath1668" d="M0,0 L13,4.5 L0,9 L0,0" fill="#323232" stroke="#323232" stroke-width="1"></path></marker><marker id="SvgjsMarker1687" markerWidth="13" markerHeight="9" refX="9.5" refY="4.5" viewBox="0 0 13 9" orient="auto" markerUnits="userSpaceOnUse" stroke-dasharray="0,0"><path id="SvgjsPath1688" d="M0,0 L13,4.5 L0,9 L0,0" fill="#323232" stroke="#323232" stroke-width="1"></path></marker><marker id="SvgjsMarker1691" markerWidth="13" markerHeight="9" refX="9.5" refY="4.5" viewBox="0 0 13 9" orient="auto" markerUnits="userSpaceOnUse" stroke-dasharray="0,0"><path id="SvgjsPath1692" d="M0,0 L13,4.5 L0,9 L0,0" fill="#323232" stroke="#323232" stroke-width="1"></path></marker></defs><rect id="svgbackgroundid" width="1317.5" height="381" fill="transparent"></rect><rect id="SvgjsRect1467" width="1317.5" height="381" fill="url(#pattern_mark_0)"></rect><rect id="SvgjsRect1468" width="1317.5" height="381" fill="url(#pattern_mark_1)"></rect><g id="SvgjsG1469" transform="translate(25,25)"><path id="SvgjsPath1470" d="M 0 4Q 0 0 4 0L 386 0Q 390 0 390 4L 390 327Q 390 331 386 331L 4 331Q 0 331 0 327Z" stroke="none" fill-opacity="0.8" fill="#b7eaeb"></path><g id="SvgjsG1471"><text id="SvgjsText1472" font-family="微软雅黑" text-anchor="middle" font-size="13px" width="370px" fill="#323232" font-weight="400" align="middle" lineHeight="125%" anchor="middle" family="微软雅黑" size="13px" weight="400" font-style="" opacity="0.8" y="154.875" transform="rotate(0)"></text></g></g><g id="SvgjsG1473" transform="translate(206,84)"><path id="SvgjsPath1474" d="M 0 4Q 0 0 4 0L 184 0Q 188 0 188 4L 188 254Q 188 258 184 258L 4 258Q 0 258 0 254Z" stroke="none" fill-opacity="0.8" fill="#e5f6da"></path><g id="SvgjsG1475"><text id="SvgjsText1476" font-family="微软雅黑" text-anchor="middle" font-size="13px" width="168px" fill="#323232" font-weight="400" align="middle" lineHeight="125%" anchor="middle" family="微软雅黑" size="13px" weight="400" font-style="" opacity="0.8" y="118.375" transform="rotate(0)"></text></g></g><g id="SvgjsG1477" transform="translate(45,84)"><path id="SvgjsPath1478" d="M 0 4Q 0 0 4 0L 102 0Q 106 0 106 4L 106 254Q 106 258 102 258L 4 258Q 0 258 0 254Z" stroke="none" fill-opacity="0.8" fill="#fadcdb"></path><g id="SvgjsG1479"><text id="SvgjsText1480" font-family="微软雅黑" text-anchor="middle" font-size="13px" width="86px" fill="#323232" font-weight="400" align="middle" lineHeight="125%" anchor="middle" family="微软雅黑" size="13px" weight="400" font-style="" opacity="0.8" y="118.375" transform="rotate(0)"></text></g></g><g id="SvgjsG1481" transform="translate(45,84)"><path id="SvgjsPath1482" d="M 0 0L 106 0L 106 42L 0 42Z" stroke="none" fill-opacity="0.8" fill="#f5b9b7"></path><g id="SvgjsG1483"><text id="SvgjsText1484" font-family="微软雅黑" text-anchor="middle" font-size="13px" width="86px" fill="#323232" font-weight="400" align="middle" lineHeight="125%" anchor="middle" family="微软雅黑" size="13px" weight="400" font-style="" opacity="0.8" y="10.375" transform="rotate(0)"><tspan id="SvgjsTspan1485" dy="16.25" x="53"><tspan id="SvgjsTspan1486" style="">栈</tspan></tspan></text></g></g><g id="SvgjsG1487" transform="translate(206,84)"><path id="SvgjsPath1488" d="M 0 0L 188 0L 188 42L 0 42Z" stroke="none" fill-opacity="0.8" fill="#caedb4"></path><g id="SvgjsG1489"><text id="SvgjsText1490" font-family="微软雅黑" text-anchor="middle" font-size="13px" width="168px" fill="#323232" font-weight="400" align="middle" lineHeight="125%" anchor="middle" family="微软雅黑" size="13px" weight="400" font-style="" opacity="0.8" y="10.375" transform="rotate(0)"><tspan id="SvgjsTspan1491" dy="16.25" x="94"><tspan id="SvgjsTspan1492" style="">堆</tspan></tspan></text></g></g><g id="SvgjsG1493" transform="translate(25,25)"><path id="SvgjsPath1494" d="M 0 0L 390 0L 390 52L 0 52Z" stroke="none" fill-opacity="0.8" fill="#70d5d7"></path><g id="SvgjsG1495"><text id="SvgjsText1496" font-family="微软雅黑" text-anchor="middle" font-size="13px" width="370px" fill="#323232" font-weight="400" align="middle" lineHeight="125%" anchor="middle" family="微软雅黑" size="13px" weight="400" font-style="" opacity="0.8" y="15.375" transform="rotate(0)"><tspan id="SvgjsTspan1497" dy="16.25" x="195"><tspan id="SvgjsTspan1498" style="">引用拷贝</tspan></tspan></text></g></g><g id="SvgjsG1499" transform="translate(228,174)"><path id="SvgjsPath1500" d="M 0 4Q 0 0 4 0L 140 0Q 144 0 144 4L 144 107Q 144 111 140 111L 4 111Q 0 111 0 107Z" stroke="none" fill-opacity="0.8" fill="#fcf9ea"></path><g id="SvgjsG1501"><text id="SvgjsText1502" font-family="微软雅黑" text-anchor="middle" font-size="13px" width="124px" fill="#323232" font-weight="400" align="middle" lineHeight="125%" anchor="middle" family="微软雅黑" size="13px" weight="400" font-style="" opacity="0.8" y="44.875" transform="rotate(0)"></text></g></g><g id="SvgjsG1503" transform="translate(228,174)"><path id="SvgjsPath1504" d="M 0 0L 144 0L 144 35L 0 35Z" stroke="none" fill-opacity="0.8" fill="#fcf9ea"></path><g id="SvgjsG1505"><text id="SvgjsText1506" font-family="微软雅黑" text-anchor="middle" font-size="13px" width="124px" fill="#323232" font-weight="400" align="middle" lineHeight="125%" anchor="middle" family="微软雅黑" size="13px" weight="400" font-style="" opacity="0.8" y="6.875" transform="rotate(0)"><tspan id="SvgjsTspan1507" dy="16.25" x="72"><tspan id="SvgjsTspan1508" style="">Person</tspan></tspan></text></g></g><g id="SvgjsG1509" transform="translate(246.5,210.5)"><path id="SvgjsPath1510" d="M 0 4Q 0 0 4 0L 101 0Q 105 0 105 4L 105 51Q 105 55 101 55L 4 55Q 0 55 0 51Z" stroke="none" fill-opacity="0.8" fill="#f1e4a2"></path><g id="SvgjsG1511"><text id="SvgjsText1512" font-family="微软雅黑" text-anchor="middle" font-size="13px" width="85px" fill="#323232" font-weight="400" align="middle" lineHeight="125%" anchor="middle" family="微软雅黑" size="13px" weight="400" font-style="" opacity="0.8" y="16.875" transform="rotate(0)"><tspan id="SvgjsTspan1513" dy="16.25" x="52.5"><tspan id="SvgjsTspan1514" style="">Address</tspan></tspan></text></g></g><g id="SvgjsG1515" transform="translate(59.75,163.5)"><path id="SvgjsPath1516" d="M 0 4Q 0 0 4 0L 72.5 0Q 76.5 0 76.5 4L 76.5 31Q 76.5 35 72.5 35L 4 35Q 0 35 0 31Z" stroke="none" fill-opacity="0.8" fill="#fcf9ea"></path><g id="SvgjsG1517"><text id="SvgjsText1518" font-family="微软雅黑" text-anchor="middle" font-size="13px" width="57px" fill="#323232" font-weight="400" align="middle" lineHeight="125%" anchor="middle" family="微软雅黑" size="13px" weight="400" font-style="" opacity="0.8" y="6.875" transform="rotate(0)"><tspan id="SvgjsTspan1519" dy="16.25" x="38.5"><tspan id="SvgjsTspan1520" style="">person</tspan></tspan></text></g></g><g id="SvgjsG1521" transform="translate(49.875,236)"><path id="SvgjsPath1522" d="M 0 4Q 0 0 4 0L 92.25 0Q 96.25 0 96.25 4L 96.25 31Q 96.25 35 92.25 35L 4 35Q 0 35 0 31Z" stroke="none" fill-opacity="0.8" fill="#fcf9ea"></path><g id="SvgjsG1523"><text id="SvgjsText1524" font-family="微软雅黑" text-anchor="middle" font-size="13px" width="77px" fill="#323232" font-weight="400" align="middle" lineHeight="125%" anchor="middle" family="微软雅黑" size="13px" weight="400" font-style="" opacity="0.8" y="6.875" transform="rotate(0)"><tspan id="SvgjsTspan1525" dy="16.25" x="48.5"><tspan id="SvgjsTspan1526" style="">personCopy</tspan></tspan></text></g></g><g id="SvgjsG1527"><path id="SvgjsPath1528" d="M136.25 181L182.125 181L182.125 229.5L226.05 229.5" stroke="#323232" stroke-width="1.5" fill="none" marker-end="url(#SvgjsMarker1529)"></path></g><g id="SvgjsG1531"><path id="SvgjsPath1532" d="M146.125 253.5L182.0625 253.5L182.0625 229.5L226.05 229.5" stroke="#323232" stroke-width="1.5" fill="none" marker-end="url(#SvgjsMarker1533)"></path></g><g id="SvgjsG1535" transform="translate(463.75,25)"><path id="SvgjsPath1536" d="M 0 4Q 0 0 4 0L 386 0Q 390 0 390 4L 390 327Q 390 331 386 331L 4 331Q 0 331 0 327Z" stroke="none" fill-opacity="0.8" fill="#b7eaeb"></path><g id="SvgjsG1537"><text id="SvgjsText1538" font-family="微软雅黑" text-anchor="middle" font-size="13px" width="370px" fill="#323232" font-weight="400" align="middle" lineHeight="125%" anchor="middle" family="微软雅黑" size="13px" weight="400" font-style="" opacity="0.8" y="154.875" transform="rotate(0)"></text></g></g><g id="SvgjsG1539" transform="translate(644.75,84)"><path id="SvgjsPath1540" d="M 0 4Q 0 0 4 0L 184 0Q 188 0 188 4L 188 254Q 188 258 184 258L 4 258Q 0 258 0 254Z" stroke="none" fill-opacity="0.8" fill="#e5f6da"></path><g id="SvgjsG1541"><text id="SvgjsText1542" font-family="微软雅黑" text-anchor="middle" font-size="13px" width="168px" fill="#323232" font-weight="400" align="middle" lineHeight="125%" anchor="middle" family="微软雅黑" size="13px" weight="400" font-style="" opacity="0.8" y="118.375" transform="rotate(0)"></text></g></g><g id="SvgjsG1543" transform="translate(483.75,84)"><path id="SvgjsPath1544" d="M 0 4Q 0 0 4 0L 102 0Q 106 0 106 4L 106 254Q 106 258 102 258L 4 258Q 0 258 0 254Z" stroke="none" fill-opacity="0.8" fill="#fadcdb"></path><g id="SvgjsG1545"><text id="SvgjsText1546" font-family="微软雅黑" text-anchor="middle" font-size="13px" width="86px" fill="#323232" font-weight="400" align="middle" lineHeight="125%" anchor="middle" family="微软雅黑" size="13px" weight="400" font-style="" opacity="0.8" y="118.375" transform="rotate(0)"></text></g></g><g id="SvgjsG1547" transform="translate(483.75,84)"><path id="SvgjsPath1548" d="M 0 0L 106 0L 106 42L 0 42Z" stroke="none" fill-opacity="0.8" fill="#f5b9b7"></path><g id="SvgjsG1549"><text id="SvgjsText1550" font-family="微软雅黑" text-anchor="middle" font-size="13px" width="86px" fill="#323232" font-weight="400" align="middle" lineHeight="125%" anchor="middle" family="微软雅黑" size="13px" weight="400" font-style="" opacity="0.8" y="10.375" transform="rotate(0)"><tspan id="SvgjsTspan1551" dy="16.25" x="53"><tspan id="SvgjsTspan1552" style="">栈</tspan></tspan></text></g></g><g id="SvgjsG1553" transform="translate(644.75,84)"><path id="SvgjsPath1554" d="M 0 0L 188 0L 188 42L 0 42Z" stroke="none" fill-opacity="0.8" fill="#caedb4"></path><g id="SvgjsG1555"><text id="SvgjsText1556" font-family="微软雅黑" text-anchor="middle" font-size="13px" width="168px" fill="#323232" font-weight="400" align="middle" lineHeight="125%" anchor="middle" family="微软雅黑" size="13px" weight="400" font-style="" opacity="0.8" y="10.375" transform="rotate(0)"><tspan id="SvgjsTspan1557" dy="16.25" x="94"><tspan id="SvgjsTspan1558" style="">堆</tspan></tspan></text></g></g><g id="SvgjsG1559" transform="translate(463.75,25)"><path id="SvgjsPath1560" d="M 0 0L 390 0L 390 52L 0 52Z" stroke="none" fill-opacity="0.8" fill="#70d5d7"></path><g id="SvgjsG1561"><text id="SvgjsText1562" font-family="微软雅黑" text-anchor="middle" font-size="13px" width="370px" fill="#323232" font-weight="400" align="middle" lineHeight="125%" anchor="middle" family="微软雅黑" size="13px" weight="400" font-style="" opacity="0.8" y="15.375" transform="rotate(0)"><tspan id="SvgjsTspan1563" dy="16.25" x="195"><tspan id="SvgjsTspan1564" style="">浅拷贝</tspan></tspan></text></g></g><g id="SvgjsG1565" transform="translate(663.625,153)"><path id="SvgjsPath1566" d="M 0 4Q 0 0 4 0L 146.25 0Q 150.25 0 150.25 4L 150.25 33.5Q 150.25 37.5 146.25 37.5L 4 37.5Q 0 37.5 0 33.5Z" stroke="none" fill-opacity="0.8" fill="#fcf9ea"></path><g id="SvgjsG1567"><text id="SvgjsText1568" font-family="微软雅黑" text-anchor="middle" font-size="13px" width="131px" fill="#323232" font-weight="400" align="middle" lineHeight="125%" anchor="middle" family="微软雅黑" size="13px" weight="400" font-style="" opacity="0.8" y="8.125" transform="rotate(0)"><tspan id="SvgjsTspan1569" dy="16.25" x="75.5"><tspan id="SvgjsTspan1570" style="">Person</tspan></tspan></text></g></g><g id="SvgjsG1571" transform="translate(683.9713541666667,217.13513513513516)"><path id="SvgjsPath1572" d="M 0 4Q 0 0 4 0L 105.55729166666666 0Q 109.55729166666666 0 109.55729166666666 4L 109.55729166666666 38.36486486486486Q 109.55729166666666 42.36486486486486 105.55729166666666 42.36486486486486L 4 42.36486486486486Q 0 42.36486486486486 0 38.36486486486486Z" stroke="none" fill-opacity="0.8" fill="#f1e4a2"></path><g id="SvgjsG1573"><text id="SvgjsText1574" font-family="微软雅黑" text-anchor="middle" font-size="13px" width="90px" fill="#323232" font-weight="400" align="middle" lineHeight="125%" anchor="middle" family="微软雅黑" size="13px" weight="400" font-style="" opacity="0.8" y="10.557432432432432" transform="rotate(0)"><tspan id="SvgjsTspan1575" dy="16.25" x="55"><tspan id="SvgjsTspan1576" style="">Address</tspan></tspan></text></g></g><g id="SvgjsG1577" transform="translate(498.5,163.5)"><path id="SvgjsPath1578" d="M 0 4Q 0 0 4 0L 72.5 0Q 76.5 0 76.5 4L 76.5 31Q 76.5 35 72.5 35L 4 35Q 0 35 0 31Z" stroke="none" fill-opacity="0.8" fill="#fcf9ea"></path><g id="SvgjsG1579"><text id="SvgjsText1580" font-family="微软雅黑" text-anchor="middle" font-size="13px" width="57px" fill="#323232" font-weight="400" align="middle" lineHeight="125%" anchor="middle" family="微软雅黑" size="13px" weight="400" font-style="" opacity="0.8" y="6.875" transform="rotate(0)"><tspan id="SvgjsTspan1581" dy="16.25" x="38.5"><tspan id="SvgjsTspan1582" style="">person</tspan></tspan></text></g></g><g id="SvgjsG1583" transform="translate(488.625,236)"><path id="SvgjsPath1584" d="M 0 4Q 0 0 4 0L 92.25 0Q 96.25 0 96.25 4L 96.25 31Q 96.25 35 92.25 35L 4 35Q 0 35 0 31Z" stroke="none" fill-opacity="0.8" fill="#fcf9ea"></path><g id="SvgjsG1585"><text id="SvgjsText1586" font-family="微软雅黑" text-anchor="middle" font-size="13px" width="77px" fill="#323232" font-weight="400" align="middle" lineHeight="125%" anchor="middle" family="微软雅黑" size="13px" weight="400" font-style="" opacity="0.8" y="6.875" transform="rotate(0)"><tspan id="SvgjsTspan1587" dy="16.25" x="48.5"><tspan id="SvgjsTspan1588" style="">personCopy</tspan></tspan></text></g></g><g id="SvgjsG1589" transform="translate(902.5,25)"><path id="SvgjsPath1590" d="M 0 4Q 0 0 4 0L 386 0Q 390 0 390 4L 390 327Q 390 331 386 331L 4 331Q 0 331 0 327Z" stroke="none" fill-opacity="0.8" fill="#b7eaeb"></path><g id="SvgjsG1591"><text id="SvgjsText1592" font-family="微软雅黑" text-anchor="middle" font-size="13px" width="370px" fill="#323232" font-weight="400" align="middle" lineHeight="125%" anchor="middle" family="微软雅黑" size="13px" weight="400" font-style="" opacity="0.8" y="154.875" transform="rotate(0)"></text></g></g><g id="SvgjsG1593" transform="translate(1083.5,84)"><path id="SvgjsPath1594" d="M 0 4Q 0 0 4 0L 184 0Q 188 0 188 4L 188 254Q 188 258 184 258L 4 258Q 0 258 0 254Z" stroke="none" fill-opacity="0.8" fill="#e5f6da"></path><g id="SvgjsG1595"><text id="SvgjsText1596" font-family="微软雅黑" text-anchor="middle" font-size="13px" width="168px" fill="#323232" font-weight="400" align="middle" lineHeight="125%" anchor="middle" family="微软雅黑" size="13px" weight="400" font-style="" opacity="0.8" y="118.375" transform="rotate(0)"></text></g></g><g id="SvgjsG1597" transform="translate(922.5,84)"><path id="SvgjsPath1598" d="M 0 4Q 0 0 4 0L 102 0Q 106 0 106 4L 106 254Q 106 258 102 258L 4 258Q 0 258 0 254Z" stroke="none" fill-opacity="0.8" fill="#fadcdb"></path><g id="SvgjsG1599"><text id="SvgjsText1600" font-family="微软雅黑" text-anchor="middle" font-size="13px" width="86px" fill="#323232" font-weight="400" align="middle" lineHeight="125%" anchor="middle" family="微软雅黑" size="13px" weight="400" font-style="" opacity="0.8" y="118.375" transform="rotate(0)"></text></g></g><g id="SvgjsG1601" transform="translate(922.5,84)"><path id="SvgjsPath1602" d="M 0 0L 106 0L 106 42L 0 42Z" stroke="none" fill-opacity="0.8" fill="#f5b9b7"></path><g id="SvgjsG1603"><text id="SvgjsText1604" font-family="微软雅黑" text-anchor="middle" font-size="13px" width="86px" fill="#323232" font-weight="400" align="middle" lineHeight="125%" anchor="middle" family="微软雅黑" size="13px" weight="400" font-style="" opacity="0.8" y="10.375" transform="rotate(0)"><tspan id="SvgjsTspan1605" dy="16.25" x="53"><tspan id="SvgjsTspan1606" style="">栈</tspan></tspan></text></g></g><g id="SvgjsG1607" transform="translate(1083.5,84)"><path id="SvgjsPath1608" d="M 0 0L 188 0L 188 42L 0 42Z" stroke="none" fill-opacity="0.8" fill="#caedb4"></path><g id="SvgjsG1609"><text id="SvgjsText1610" font-family="微软雅黑" text-anchor="middle" font-size="13px" width="168px" fill="#323232" font-weight="400" align="middle" lineHeight="125%" anchor="middle" family="微软雅黑" size="13px" weight="400" font-style="" opacity="0.8" y="10.375" transform="rotate(0)"><tspan id="SvgjsTspan1611" dy="16.25" x="94"><tspan id="SvgjsTspan1612" style="">堆</tspan></tspan></text></g></g><g id="SvgjsG1613" transform="translate(902.5,25)"><path id="SvgjsPath1614" d="M 0 0L 390 0L 390 52L 0 52Z" stroke="none" fill-opacity="0.8" fill="#70d5d7"></path><g id="SvgjsG1615"><text id="SvgjsText1616" font-family="微软雅黑" text-anchor="middle" font-size="13px" width="370px" fill="#323232" font-weight="400" align="middle" lineHeight="125%" anchor="middle" family="微软雅黑" size="13px" weight="400" font-style="" opacity="0.8" y="15.375" transform="rotate(0)"><tspan id="SvgjsTspan1617" dy="16.25" x="195"><tspan id="SvgjsTspan1618" style="">深拷贝</tspan></tspan></text></g></g><g id="SvgjsG1619" transform="translate(1105.5,150.5)"><path id="SvgjsPath1620" d="M 0 4Q 0 0 4 0L 140 0Q 144 0 144 4L 144 65Q 144 69 140 69L 4 69Q 0 69 0 65Z" stroke="none" fill-opacity="0.8" fill="#fcf9ea"></path><g id="SvgjsG1621"><text id="SvgjsText1622" font-family="微软雅黑" text-anchor="middle" font-size="13px" width="124px" fill="#323232" font-weight="400" align="middle" lineHeight="125%" anchor="middle" family="微软雅黑" size="13px" weight="400" font-style="" opacity="0.8" y="23.875" transform="rotate(0)"></text></g></g><g id="SvgjsG1623" transform="translate(1105.5,150.5)"><path id="SvgjsPath1624" d="M 0 0L 144 0L 144 21.756756756756758L 0 21.756756756756758Z" stroke="none" fill-opacity="0.8" fill="#fcf9ea"></path><g id="SvgjsG1625"><text id="SvgjsText1626" font-family="微软雅黑" text-anchor="middle" font-size="13px" width="124px" fill="#323232" font-weight="400" align="middle" lineHeight="125%" anchor="middle" family="微软雅黑" size="13px" weight="400" font-style="" opacity="0.8" y="0.25337837837837895" transform="rotate(0)"><tspan id="SvgjsTspan1627" dy="16.25" x="72"><tspan id="SvgjsTspan1628" style="">Person</tspan></tspan></text></g></g><g id="SvgjsG1629" transform="translate(1124,173.1891891891892)"><path id="SvgjsPath1630" d="M 0 4Q 0 0 4 0L 101 0Q 105 0 105 4L 105 30.189189189189186Q 105 34.189189189189186 101 34.189189189189186L 4 34.189189189189186Q 0 34.189189189189186 0 30.189189189189186Z" stroke="none" fill-opacity="0.8" fill="#f1e4a2"></path><g id="SvgjsG1631"><text id="SvgjsText1632" font-family="微软雅黑" text-anchor="middle" font-size="13px" width="85px" fill="#323232" font-weight="400" align="middle" lineHeight="125%" anchor="middle" family="微软雅黑" size="13px" weight="400" font-style="" opacity="0.8" y="6.469594594594593" transform="rotate(0)"><tspan id="SvgjsTspan1633" dy="16.25" x="52.5"><tspan id="SvgjsTspan1634" style="">Address</tspan></tspan></text></g></g><g id="SvgjsG1635" transform="translate(937.25,163.5)"><path id="SvgjsPath1636" d="M 0 4Q 0 0 4 0L 72.5 0Q 76.5 0 76.5 4L 76.5 31Q 76.5 35 72.5 35L 4 35Q 0 35 0 31Z" stroke="none" fill-opacity="0.8" fill="#fcf9ea"></path><g id="SvgjsG1637"><text id="SvgjsText1638" font-family="微软雅黑" text-anchor="middle" font-size="13px" width="57px" fill="#323232" font-weight="400" align="middle" lineHeight="125%" anchor="middle" family="微软雅黑" size="13px" weight="400" font-style="" opacity="0.8" y="6.875" transform="rotate(0)"><tspan id="SvgjsTspan1639" dy="16.25" x="38.5"><tspan id="SvgjsTspan1640" style="">person</tspan></tspan></text></g></g><g id="SvgjsG1641" transform="translate(927.375,236)"><path id="SvgjsPath1642" d="M 0 4Q 0 0 4 0L 92.25 0Q 96.25 0 96.25 4L 96.25 31Q 96.25 35 92.25 35L 4 35Q 0 35 0 31Z" stroke="none" fill-opacity="0.8" fill="#fcf9ea"></path><g id="SvgjsG1643"><text id="SvgjsText1644" font-family="微软雅黑" text-anchor="middle" font-size="13px" width="77px" fill="#323232" font-weight="400" align="middle" lineHeight="125%" anchor="middle" family="微软雅黑" size="13px" weight="400" font-style="" opacity="0.8" y="6.875" transform="rotate(0)"><tspan id="SvgjsTspan1645" dy="16.25" x="48.5"><tspan id="SvgjsTspan1646" style="">personCopy</tspan></tspan></text></g></g><g id="SvgjsG1647" transform="translate(661.625,287.5)"><path id="SvgjsPath1648" d="M 0 4Q 0 0 4 0L 150.25 0Q 154.25 0 154.25 4L 154.25 28.95945945945948Q 154.25 32.95945945945948 150.25 32.95945945945948L 4 32.95945945945948Q 0 32.95945945945948 0 28.95945945945948Z" stroke="none" fill-opacity="0.8" fill="#fcf9ea"></path><g id="SvgjsG1649"><text id="SvgjsText1650" font-family="微软雅黑" text-anchor="middle" font-size="13px" width="135px" fill="#323232" font-weight="400" align="middle" lineHeight="125%" anchor="middle" family="微软雅黑" size="13px" weight="400" font-style="" opacity="0.8" y="5.8547297297297405" transform="rotate(0)"><tspan id="SvgjsTspan1651" dy="16.25" x="77.5"><tspan id="SvgjsTspan1652" style="">Person</tspan></tspan></text></g></g><g id="SvgjsG1653"><path id="SvgjsPath1654" d="M738.75 190.5L738.75 203.81756756756758L738.75 203.81756756756758L738.75 215.18513513513517" stroke="#323232" stroke-width="1.5" fill="none" marker-end="url(#SvgjsMarker1655)"></path></g><g id="SvgjsG1657"><path id="SvgjsPath1658" d="M738.75 287.5L738.75 273.5L738.75 273.5L738.75 261.45" stroke="#323232" stroke-width="1.5" fill="none" marker-end="url(#SvgjsMarker1659)"></path></g><g id="SvgjsG1661"><path id="SvgjsPath1662" d="M575 181L619.3125 181L619.3125 171.75L661.675 171.75" stroke="#323232" stroke-width="1.5" fill="none" marker-end="url(#SvgjsMarker1663)"></path></g><g id="SvgjsG1665"><path id="SvgjsPath1666" d="M584.875 253.5L623.25 253.5L623.25 303.97972972972974L659.675 303.97972972972974" stroke="#323232" stroke-width="1.5" fill="none" marker-end="url(#SvgjsMarker1667)"></path></g><g id="SvgjsG1669" transform="translate(1105.5,236)"><path id="SvgjsPath1670" d="M 0 4Q 0 0 4 0L 140 0Q 144 0 144 4L 144 65Q 144 69 140 69L 4 69Q 0 69 0 65Z" stroke="none" fill-opacity="0.8" fill="#fcf9ea"></path><g id="SvgjsG1671"><text id="SvgjsText1672" font-family="微软雅黑" text-anchor="middle" font-size="13px" width="124px" fill="#323232" font-weight="400" align="middle" lineHeight="125%" anchor="middle" family="微软雅黑" size="13px" weight="400" font-style="" opacity="0.8" y="23.875" transform="rotate(0)"></text></g></g><g id="SvgjsG1673" transform="translate(1105.5,236)"><path id="SvgjsPath1674" d="M 0 0L 144 0L 144 21.756756756756758L 0 21.756756756756758Z" stroke="none" fill-opacity="0.8" fill="#fcf9ea"></path><g id="SvgjsG1675"><text id="SvgjsText1676" font-family="微软雅黑" text-anchor="middle" font-size="13px" width="124px" fill="#323232" font-weight="400" align="middle" lineHeight="125%" anchor="middle" family="微软雅黑" size="13px" weight="400" font-style="" opacity="0.8" y="0.25337837837837895" transform="rotate(0)"><tspan id="SvgjsTspan1677" dy="16.25" x="72"><tspan id="SvgjsTspan1678" style="">Person</tspan></tspan></text></g></g><g id="SvgjsG1679" transform="translate(1124,258.68918918918916)"><path id="SvgjsPath1680" d="M 0 4Q 0 0 4 0L 101 0Q 105 0 105 4L 105 30.189189189189186Q 105 34.189189189189186 101 34.189189189189186L 4 34.189189189189186Q 0 34.189189189189186 0 30.189189189189186Z" stroke="none" fill-opacity="0.8" fill="#f1e4a2"></path><g id="SvgjsG1681"><text id="SvgjsText1682" font-family="微软雅黑" text-anchor="middle" font-size="13px" width="85px" fill="#323232" font-weight="400" align="middle" lineHeight="125%" anchor="middle" family="微软雅黑" size="13px" weight="400" font-style="" opacity="0.8" y="6.469594594594593" transform="rotate(0)"><tspan id="SvgjsTspan1683" dy="16.25" x="52.5"><tspan id="SvgjsTspan1684" style="">Address</tspan></tspan></text></g></g><g id="SvgjsG1685"><path id="SvgjsPath1686" d="M1013.75 181L1059.625 181L1059.625 185L1103.55 185" stroke="#323232" stroke-width="1.5" fill="none" marker-end="url(#SvgjsMarker1687)"></path></g><g id="SvgjsG1689"><path id="SvgjsPath1690" d="M1023.625 253.5L1064.5625 253.5L1064.5625 270.5L1103.55 270.5" stroke="#323232" stroke-width="1.5" fill="none" marker-end="url(#SvgjsMarker1691)"></path></g></svg>