<svg id="SvgjsSvg1006" width="1317.5" height="381" xmlns="http://www.w3.org/2000/svg" version="1.1" xmlns:xlink="http://www.w3.org/1999/xlink" xmlns:svgjs="http://svgjs.com/svgjs"><defs id="SvgjsDefs1007"><pattern patternUnits="userSpaceOnUse" id="pattern_mark_0" width="300" height="300"><text x="150" y="100" fill="rgba(229,229,229,0.8)" font-size="18" transform="rotate(-45, 150, 150)" style="dominant-baseline: middle; text-anchor: middle;">@Kingzhy</text></pattern><pattern patternUnits="userSpaceOnUse" id="pattern_mark_1" width="300" height="300"><text x="150" y="200" fill="rgba(229,229,229,0.8)" font-size="18" transform="rotate(-45, 150, 150)" style="dominant-baseline: middle; text-anchor: middle;"></text></pattern><marker id="SvgjsMarker1071" markerWidth="13" markerHeight="9" refX="9.5" refY="4.5" viewBox="0 0 13 9" orient="auto" markerUnits="userSpaceOnUse" stroke-dasharray="0,0"><path id="SvgjsPath1072" d="M0,0 L13,4.5 L0,9 L0,0" fill="#323232" stroke="#323232" stroke-width="1"></path></marker><marker id="SvgjsMarker1075" markerWidth="13" markerHeight="9" refX="9.5" refY="4.5" viewBox="0 0 13 9" orient="auto" markerUnits="userSpaceOnUse" stroke-dasharray="0,0"><path id="SvgjsPath1076" d="M0,0 L13,4.5 L0,9 L0,0" fill="#323232" stroke="#323232" stroke-width="1"></path></marker><marker id="SvgjsMarker1197" markerWidth="13" markerHeight="9" refX="9.5" refY="4.5" viewBox="0 0 13 9" orient="auto" markerUnits="userSpaceOnUse" stroke-dasharray="0,0"><path id="SvgjsPath1198" d="M0,0 L13,4.5 L0,9 L0,0" fill="#323232" stroke="#323232" stroke-width="1"></path></marker><marker id="SvgjsMarker1201" markerWidth="13" markerHeight="9" refX="9.5" refY="4.5" viewBox="0 0 13 9" orient="auto" markerUnits="userSpaceOnUse" stroke-dasharray="0,0"><path id="SvgjsPath1202" d="M0,0 L13,4.5 L0,9 L0,0" fill="#323232" stroke="#323232" stroke-width="1"></path></marker><marker id="SvgjsMarker1205" markerWidth="13" markerHeight="9" refX="9.5" refY="4.5" viewBox="0 0 13 9" orient="auto" markerUnits="userSpaceOnUse" stroke-dasharray="0,0"><path id="SvgjsPath1206" d="M0,0 L13,4.5 L0,9 L0,0" fill="#323232" stroke="#323232" stroke-width="1"></path></marker><marker id="SvgjsMarker1209" markerWidth="13" markerHeight="9" refX="9.5" refY="4.5" viewBox="0 0 13 9" orient="auto" markerUnits="userSpaceOnUse" stroke-dasharray="0,0"><path id="SvgjsPath1210" d="M0,0 L13,4.5 L0,9 L0,0" fill="#323232" stroke="#323232" stroke-width="1"></path></marker><marker id="SvgjsMarker1229" markerWidth="13" markerHeight="9" refX="9.5" refY="4.5" viewBox="0 0 13 9" orient="auto" markerUnits="userSpaceOnUse" stroke-dasharray="0,0"><path id="SvgjsPath1230" d="M0,0 L13,4.5 L0,9 L0,0" fill="#323232" stroke="#323232" stroke-width="1"></path></marker><marker id="SvgjsMarker1233" markerWidth="13" markerHeight="9" refX="9.5" refY="4.5" viewBox="0 0 13 9" orient="auto" markerUnits="userSpaceOnUse" stroke-dasharray="0,0"><path id="SvgjsPath1234" d="M0,0 L13,4.5 L0,9 L0,0" fill="#323232" stroke="#323232" stroke-width="1"></path></marker></defs><rect id="svgbackgroundid" width="1317.5" height="381" fill="transparent"></rect><rect id="SvgjsRect1009" width="1317.5" height="381" fill="url(#pattern_mark_0)"></rect><rect id="SvgjsRect1010" width="1317.5" height="381" fill="url(#pattern_mark_1)"></rect><g id="SvgjsG1011" transform="translate(25,25)"><path id="SvgjsPath1012" d="M 0 4Q 0 0 4 0L 386 0Q 390 0 390 4L 390 327Q 390 331 386 331L 4 331Q 0 331 0 327Z" stroke="none" fill-opacity="1" fill="#b7eaeb"></path><g id="SvgjsG1013"><text id="SvgjsText1014" font-family="微软雅黑" text-anchor="middle" font-size="13px" width="370px" fill="#323232" font-weight="400" align="middle" lineHeight="125%" anchor="middle" family="微软雅黑" size="13px" weight="400" font-style="" opacity="1" y="154.875" transform="rotate(0)"></text></g></g><g id="SvgjsG1015" transform="translate(206,84)"><path id="SvgjsPath1016" d="M 0 4Q 0 0 4 0L 184 0Q 188 0 188 4L 188 254Q 188 258 184 258L 4 258Q 0 258 0 254Z" stroke="none" fill-opacity="1" fill="#e5f6da"></path><g id="SvgjsG1017"><text id="SvgjsText1018" font-family="微软雅黑" text-anchor="middle" font-size="13px" width="168px" fill="#323232" font-weight="400" align="middle" lineHeight="125%" anchor="middle" family="微软雅黑" size="13px" weight="400" font-style="" opacity="1" y="118.375" transform="rotate(0)"></text></g></g><g id="SvgjsG1019" transform="translate(45,84)"><path id="SvgjsPath1020" d="M 0 4Q 0 0 4 0L 102 0Q 106 0 106 4L 106 254Q 106 258 102 258L 4 258Q 0 258 0 254Z" stroke="none" fill-opacity="1" fill="#fadcdb"></path><g id="SvgjsG1021"><text id="SvgjsText1022" font-family="微软雅黑" text-anchor="middle" font-size="13px" width="86px" fill="#323232" font-weight="400" align="middle" lineHeight="125%" anchor="middle" family="微软雅黑" size="13px" weight="400" font-style="" opacity="1" y="118.375" transform="rotate(0)"></text></g></g><g id="SvgjsG1023" transform="translate(45,84)"><path id="SvgjsPath1024" d="M 0 0L 106 0L 106 42L 0 42Z" stroke="none" fill-opacity="1" fill="#f5b9b7"></path><g id="SvgjsG1025"><text id="SvgjsText1026" font-family="微软雅黑" text-anchor="middle" font-size="13px" width="86px" fill="#323232" font-weight="400" align="middle" lineHeight="125%" anchor="middle" family="微软雅黑" size="13px" weight="400" font-style="" opacity="1" y="10.375" transform="rotate(0)"><tspan id="SvgjsTspan1027" dy="16.25" x="53"><tspan id="SvgjsTspan1028" style="">栈</tspan></tspan></text></g></g><g id="SvgjsG1029" transform="translate(206,84)"><path id="SvgjsPath1030" d="M 0 0L 188 0L 188 42L 0 42Z" stroke="none" fill-opacity="1" fill="#caedb4"></path><g id="SvgjsG1031"><text id="SvgjsText1032" font-family="微软雅黑" text-anchor="middle" font-size="13px" width="168px" fill="#323232" font-weight="400" align="middle" lineHeight="125%" anchor="middle" family="微软雅黑" size="13px" weight="400" font-style="" opacity="1" y="10.375" transform="rotate(0)"><tspan id="SvgjsTspan1033" dy="16.25" x="94"><tspan id="SvgjsTspan1034" style="">堆</tspan></tspan></text></g></g><g id="SvgjsG1035" transform="translate(25,25)"><path id="SvgjsPath1036" d="M 0 0L 390 0L 390 52L 0 52Z" stroke="none" fill-opacity="1" fill="#70d5d7"></path><g id="SvgjsG1037"><text id="SvgjsText1038" font-family="微软雅黑" text-anchor="middle" font-size="13px" width="370px" fill="#323232" font-weight="400" align="middle" lineHeight="125%" anchor="middle" family="微软雅黑" size="13px" weight="400" font-style="" opacity="1" y="15.375" transform="rotate(0)"><tspan id="SvgjsTspan1039" dy="16.25" x="195"><tspan id="SvgjsTspan1040" style="">引用拷贝</tspan></tspan></text></g></g><g id="SvgjsG1041" transform="translate(228,174)"><path id="SvgjsPath1042" d="M 0 4Q 0 0 4 0L 140 0Q 144 0 144 4L 144 107Q 144 111 140 111L 4 111Q 0 111 0 107Z" stroke="none" fill-opacity="1" fill="#fcf9ea"></path><g id="SvgjsG1043"><text id="SvgjsText1044" font-family="微软雅黑" text-anchor="middle" font-size="13px" width="124px" fill="#323232" font-weight="400" align="middle" lineHeight="125%" anchor="middle" family="微软雅黑" size="13px" weight="400" font-style="" opacity="1" y="44.875" transform="rotate(0)"></text></g></g><g id="SvgjsG1045" transform="translate(228,174)"><path id="SvgjsPath1046" d="M 0 0L 144 0L 144 35L 0 35Z" stroke="none" fill-opacity="1" fill="#fcf9ea"></path><g id="SvgjsG1047"><text id="SvgjsText1048" font-family="微软雅黑" text-anchor="middle" font-size="13px" width="124px" fill="#323232" font-weight="400" align="middle" lineHeight="125%" anchor="middle" family="微软雅黑" size="13px" weight="400" font-style="" opacity="1" y="6.875" transform="rotate(0)"><tspan id="SvgjsTspan1049" dy="16.25" x="72"><tspan id="SvgjsTspan1050" style="">Person</tspan></tspan></text></g></g><g id="SvgjsG1051" transform="translate(246.5,210.5)"><path id="SvgjsPath1052" d="M 0 4Q 0 0 4 0L 101 0Q 105 0 105 4L 105 51Q 105 55 101 55L 4 55Q 0 55 0 51Z" stroke="none" fill-opacity="1" fill="#f1e4a2"></path><g id="SvgjsG1053"><text id="SvgjsText1054" font-family="微软雅黑" text-anchor="middle" font-size="13px" width="85px" fill="#323232" font-weight="400" align="middle" lineHeight="125%" anchor="middle" family="微软雅黑" size="13px" weight="400" font-style="" opacity="1" y="16.875" transform="rotate(0)"><tspan id="SvgjsTspan1055" dy="16.25" x="52.5"><tspan id="SvgjsTspan1056" style="">Address</tspan></tspan></text></g></g><g id="SvgjsG1057" transform="translate(59.75,163.5)"><path id="SvgjsPath1058" d="M 0 4Q 0 0 4 0L 72.5 0Q 76.5 0 76.5 4L 76.5 31Q 76.5 35 72.5 35L 4 35Q 0 35 0 31Z" stroke="none" fill-opacity="1" fill="#fcf9ea"></path><g id="SvgjsG1059"><text id="SvgjsText1060" font-family="微软雅黑" text-anchor="middle" font-size="13px" width="57px" fill="#323232" font-weight="400" align="middle" lineHeight="125%" anchor="middle" family="微软雅黑" size="13px" weight="400" font-style="" opacity="1" y="6.875" transform="rotate(0)"><tspan id="SvgjsTspan1061" dy="16.25" x="38.5"><tspan id="SvgjsTspan1062" style="">person</tspan></tspan></text></g></g><g id="SvgjsG1063" transform="translate(49.875,236)"><path id="SvgjsPath1064" d="M 0 4Q 0 0 4 0L 92.25 0Q 96.25 0 96.25 4L 96.25 31Q 96.25 35 92.25 35L 4 35Q 0 35 0 31Z" stroke="none" fill-opacity="1" fill="#fcf9ea"></path><g id="SvgjsG1065"><text id="SvgjsText1066" font-family="微软雅黑" text-anchor="middle" font-size="13px" width="77px" fill="#323232" font-weight="400" align="middle" lineHeight="125%" anchor="middle" family="微软雅黑" size="13px" weight="400" font-style="" opacity="1" y="6.875" transform="rotate(0)"><tspan id="SvgjsTspan1067" dy="16.25" x="48.5"><tspan id="SvgjsTspan1068" style="">personCopy</tspan></tspan></text></g></g><g id="SvgjsG1069"><path id="SvgjsPath1070" d="M136.25 181L182.125 181L182.125 229.5L226.05 229.5" stroke="#323232" stroke-width="1.5" fill="none" marker-end="url(#SvgjsMarker1071)"></path></g><g id="SvgjsG1073"><path id="SvgjsPath1074" d="M146.125 253.5L182.0625 253.5L182.0625 229.5L226.05 229.5" stroke="#323232" stroke-width="1.5" fill="none" marker-end="url(#SvgjsMarker1075)"></path></g><g id="SvgjsG1077" transform="translate(463.75,25)"><path id="SvgjsPath1078" d="M 0 4Q 0 0 4 0L 386 0Q 390 0 390 4L 390 327Q 390 331 386 331L 4 331Q 0 331 0 327Z" stroke="none" fill-opacity="1" fill="#b7eaeb"></path><g id="SvgjsG1079"><text id="SvgjsText1080" font-family="微软雅黑" text-anchor="middle" font-size="13px" width="370px" fill="#323232" font-weight="400" align="middle" lineHeight="125%" anchor="middle" family="微软雅黑" size="13px" weight="400" font-style="" opacity="1" y="154.875" transform="rotate(0)"></text></g></g><g id="SvgjsG1081" transform="translate(644.75,84)"><path id="SvgjsPath1082" d="M 0 4Q 0 0 4 0L 184 0Q 188 0 188 4L 188 254Q 188 258 184 258L 4 258Q 0 258 0 254Z" stroke="none" fill-opacity="1" fill="#e5f6da"></path><g id="SvgjsG1083"><text id="SvgjsText1084" font-family="微软雅黑" text-anchor="middle" font-size="13px" width="168px" fill="#323232" font-weight="400" align="middle" lineHeight="125%" anchor="middle" family="微软雅黑" size="13px" weight="400" font-style="" opacity="1" y="118.375" transform="rotate(0)"></text></g></g><g id="SvgjsG1085" transform="translate(483.75,84)"><path id="SvgjsPath1086" d="M 0 4Q 0 0 4 0L 102 0Q 106 0 106 4L 106 254Q 106 258 102 258L 4 258Q 0 258 0 254Z" stroke="none" fill-opacity="1" fill="#fadcdb"></path><g id="SvgjsG1087"><text id="SvgjsText1088" font-family="微软雅黑" text-anchor="middle" font-size="13px" width="86px" fill="#323232" font-weight="400" align="middle" lineHeight="125%" anchor="middle" family="微软雅黑" size="13px" weight="400" font-style="" opacity="1" y="118.375" transform="rotate(0)"></text></g></g><g id="SvgjsG1089" transform="translate(483.75,84)"><path id="SvgjsPath1090" d="M 0 0L 106 0L 106 42L 0 42Z" stroke="none" fill-opacity="1" fill="#f5b9b7"></path><g id="SvgjsG1091"><text id="SvgjsText1092" font-family="微软雅黑" text-anchor="middle" font-size="13px" width="86px" fill="#323232" font-weight="400" align="middle" lineHeight="125%" anchor="middle" family="微软雅黑" size="13px" weight="400" font-style="" opacity="1" y="10.375" transform="rotate(0)"><tspan id="SvgjsTspan1093" dy="16.25" x="53"><tspan id="SvgjsTspan1094" style="">栈</tspan></tspan></text></g></g><g id="SvgjsG1095" transform="translate(644.75,84)"><path id="SvgjsPath1096" d="M 0 0L 188 0L 188 42L 0 42Z" stroke="none" fill-opacity="1" fill="#caedb4"></path><g id="SvgjsG1097"><text id="SvgjsText1098" font-family="微软雅黑" text-anchor="middle" font-size="13px" width="168px" fill="#323232" font-weight="400" align="middle" lineHeight="125%" anchor="middle" family="微软雅黑" size="13px" weight="400" font-style="" opacity="1" y="10.375" transform="rotate(0)"><tspan id="SvgjsTspan1099" dy="16.25" x="94"><tspan id="SvgjsTspan1100" style="">堆</tspan></tspan></text></g></g><g id="SvgjsG1101" transform="translate(463.75,25)"><path id="SvgjsPath1102" d="M 0 0L 390 0L 390 52L 0 52Z" stroke="none" fill-opacity="1" fill="#70d5d7"></path><g id="SvgjsG1103"><text id="SvgjsText1104" font-family="微软雅黑" text-anchor="middle" font-size="13px" width="370px" fill="#323232" font-weight="400" align="middle" lineHeight="125%" anchor="middle" family="微软雅黑" size="13px" weight="400" font-style="" opacity="1" y="15.375" transform="rotate(0)"><tspan id="SvgjsTspan1105" dy="16.25" x="195"><tspan id="SvgjsTspan1106" style="">引用拷贝</tspan></tspan></text></g></g><g id="SvgjsG1107" transform="translate(663.625,153)"><path id="SvgjsPath1108" d="M 0 4Q 0 0 4 0L 146.25 0Q 150.25 0 150.25 4L 150.25 33.5Q 150.25 37.5 146.25 37.5L 4 37.5Q 0 37.5 0 33.5Z" stroke="none" fill-opacity="1" fill="#fcf9ea"></path><g id="SvgjsG1109"><text id="SvgjsText1110" font-family="微软雅黑" text-anchor="middle" font-size="13px" width="131px" fill="#323232" font-weight="400" align="middle" lineHeight="125%" anchor="middle" family="微软雅黑" size="13px" weight="400" font-style="" opacity="1" y="8.125" transform="rotate(0)"><tspan id="SvgjsTspan1111" dy="16.25" x="75.5"><tspan id="SvgjsTspan1112" style="">Person</tspan></tspan></text></g></g><g id="SvgjsG1113" transform="translate(683.9713541666667,217.13513513513516)"><path id="SvgjsPath1114" d="M 0 4Q 0 0 4 0L 105.55729166666666 0Q 109.55729166666666 0 109.55729166666666 4L 109.55729166666666 38.36486486486486Q 109.55729166666666 42.36486486486486 105.55729166666666 42.36486486486486L 4 42.36486486486486Q 0 42.36486486486486 0 38.36486486486486Z" stroke="none" fill-opacity="1" fill="#f1e4a2"></path><g id="SvgjsG1115"><text id="SvgjsText1116" font-family="微软雅黑" text-anchor="middle" font-size="13px" width="90px" fill="#323232" font-weight="400" align="middle" lineHeight="125%" anchor="middle" family="微软雅黑" size="13px" weight="400" font-style="" opacity="1" y="10.557432432432432" transform="rotate(0)"><tspan id="SvgjsTspan1117" dy="16.25" x="55"><tspan id="SvgjsTspan1118" style="">Address</tspan></tspan></text></g></g><g id="SvgjsG1119" transform="translate(498.5,163.5)"><path id="SvgjsPath1120" d="M 0 4Q 0 0 4 0L 72.5 0Q 76.5 0 76.5 4L 76.5 31Q 76.5 35 72.5 35L 4 35Q 0 35 0 31Z" stroke="none" fill-opacity="1" fill="#fcf9ea"></path><g id="SvgjsG1121"><text id="SvgjsText1122" font-family="微软雅黑" text-anchor="middle" font-size="13px" width="57px" fill="#323232" font-weight="400" align="middle" lineHeight="125%" anchor="middle" family="微软雅黑" size="13px" weight="400" font-style="" opacity="1" y="6.875" transform="rotate(0)"><tspan id="SvgjsTspan1123" dy="16.25" x="38.5"><tspan id="SvgjsTspan1124" style="">person</tspan></tspan></text></g></g><g id="SvgjsG1125" transform="translate(488.625,236)"><path id="SvgjsPath1126" d="M 0 4Q 0 0 4 0L 92.25 0Q 96.25 0 96.25 4L 96.25 31Q 96.25 35 92.25 35L 4 35Q 0 35 0 31Z" stroke="none" fill-opacity="1" fill="#fcf9ea"></path><g id="SvgjsG1127"><text id="SvgjsText1128" font-family="微软雅黑" text-anchor="middle" font-size="13px" width="77px" fill="#323232" font-weight="400" align="middle" lineHeight="125%" anchor="middle" family="微软雅黑" size="13px" weight="400" font-style="" opacity="1" y="6.875" transform="rotate(0)"><tspan id="SvgjsTspan1129" dy="16.25" x="48.5"><tspan id="SvgjsTspan1130" style="">personCopy</tspan></tspan></text></g></g><g id="SvgjsG1131" transform="translate(902.5,25)"><path id="SvgjsPath1132" d="M 0 4Q 0 0 4 0L 386 0Q 390 0 390 4L 390 327Q 390 331 386 331L 4 331Q 0 331 0 327Z" stroke="none" fill-opacity="1" fill="#b7eaeb"></path><g id="SvgjsG1133"><text id="SvgjsText1134" font-family="微软雅黑" text-anchor="middle" font-size="13px" width="370px" fill="#323232" font-weight="400" align="middle" lineHeight="125%" anchor="middle" family="微软雅黑" size="13px" weight="400" font-style="" opacity="1" y="154.875" transform="rotate(0)"></text></g></g><g id="SvgjsG1135" transform="translate(1083.5,84)"><path id="SvgjsPath1136" d="M 0 4Q 0 0 4 0L 184 0Q 188 0 188 4L 188 254Q 188 258 184 258L 4 258Q 0 258 0 254Z" stroke="none" fill-opacity="1" fill="#e5f6da"></path><g id="SvgjsG1137"><text id="SvgjsText1138" font-family="微软雅黑" text-anchor="middle" font-size="13px" width="168px" fill="#323232" font-weight="400" align="middle" lineHeight="125%" anchor="middle" family="微软雅黑" size="13px" weight="400" font-style="" opacity="1" y="118.375" transform="rotate(0)"></text></g></g><g id="SvgjsG1139" transform="translate(922.5,84)"><path id="SvgjsPath1140" d="M 0 4Q 0 0 4 0L 102 0Q 106 0 106 4L 106 254Q 106 258 102 258L 4 258Q 0 258 0 254Z" stroke="none" fill-opacity="1" fill="#fadcdb"></path><g id="SvgjsG1141"><text id="SvgjsText1142" font-family="微软雅黑" text-anchor="middle" font-size="13px" width="86px" fill="#323232" font-weight="400" align="middle" lineHeight="125%" anchor="middle" family="微软雅黑" size="13px" weight="400" font-style="" opacity="1" y="118.375" transform="rotate(0)"></text></g></g><g id="SvgjsG1143" transform="translate(922.5,84)"><path id="SvgjsPath1144" d="M 0 0L 106 0L 106 42L 0 42Z" stroke="none" fill-opacity="1" fill="#f5b9b7"></path><g id="SvgjsG1145"><text id="SvgjsText1146" font-family="微软雅黑" text-anchor="middle" font-size="13px" width="86px" fill="#323232" font-weight="400" align="middle" lineHeight="125%" anchor="middle" family="微软雅黑" size="13px" weight="400" font-style="" opacity="1" y="10.375" transform="rotate(0)"><tspan id="SvgjsTspan1147" dy="16.25" x="53"><tspan id="SvgjsTspan1148" style="">栈</tspan></tspan></text></g></g><g id="SvgjsG1149" transform="translate(1083.5,84)"><path id="SvgjsPath1150" d="M 0 0L 188 0L 188 42L 0 42Z" stroke="none" fill-opacity="1" fill="#caedb4"></path><g id="SvgjsG1151"><text id="SvgjsText1152" font-family="微软雅黑" text-anchor="middle" font-size="13px" width="168px" fill="#323232" font-weight="400" align="middle" lineHeight="125%" anchor="middle" family="微软雅黑" size="13px" weight="400" font-style="" opacity="1" y="10.375" transform="rotate(0)"><tspan id="SvgjsTspan1153" dy="16.25" x="94"><tspan id="SvgjsTspan1154" style="">堆</tspan></tspan></text></g></g><g id="SvgjsG1155" transform="translate(902.5,25)"><path id="SvgjsPath1156" d="M 0 0L 390 0L 390 52L 0 52Z" stroke="none" fill-opacity="1" fill="#70d5d7"></path><g id="SvgjsG1157"><text id="SvgjsText1158" font-family="微软雅黑" text-anchor="middle" font-size="13px" width="370px" fill="#323232" font-weight="400" align="middle" lineHeight="125%" anchor="middle" family="微软雅黑" size="13px" weight="400" font-style="" opacity="1" y="15.375" transform="rotate(0)"><tspan id="SvgjsTspan1159" dy="16.25" x="195"><tspan id="SvgjsTspan1160" style="">引用拷贝</tspan></tspan></text></g></g><g id="SvgjsG1161" transform="translate(1105.5,150.5)"><path id="SvgjsPath1162" d="M 0 4Q 0 0 4 0L 140 0Q 144 0 144 4L 144 65Q 144 69 140 69L 4 69Q 0 69 0 65Z" stroke="none" fill-opacity="1" fill="#fcf9ea"></path><g id="SvgjsG1163"><text id="SvgjsText1164" font-family="微软雅黑" text-anchor="middle" font-size="13px" width="124px" fill="#323232" font-weight="400" align="middle" lineHeight="125%" anchor="middle" family="微软雅黑" size="13px" weight="400" font-style="" opacity="1" y="23.875" transform="rotate(0)"></text></g></g><g id="SvgjsG1165" transform="translate(1105.5,150.5)"><path id="SvgjsPath1166" d="M 0 0L 144 0L 144 21.756756756756758L 0 21.756756756756758Z" stroke="none" fill-opacity="1" fill="#fcf9ea"></path><g id="SvgjsG1167"><text id="SvgjsText1168" font-family="微软雅黑" text-anchor="middle" font-size="13px" width="124px" fill="#323232" font-weight="400" align="middle" lineHeight="125%" anchor="middle" family="微软雅黑" size="13px" weight="400" font-style="" opacity="1" y="0.25337837837837895" transform="rotate(0)"><tspan id="SvgjsTspan1169" dy="16.25" x="72"><tspan id="SvgjsTspan1170" style="">Person</tspan></tspan></text></g></g><g id="SvgjsG1171" transform="translate(1124,173.1891891891892)"><path id="SvgjsPath1172" d="M 0 4Q 0 0 4 0L 101 0Q 105 0 105 4L 105 30.189189189189186Q 105 34.189189189189186 101 34.189189189189186L 4 34.189189189189186Q 0 34.189189189189186 0 30.189189189189186Z" stroke="none" fill-opacity="1" fill="#f1e4a2"></path><g id="SvgjsG1173"><text id="SvgjsText1174" font-family="微软雅黑" text-anchor="middle" font-size="13px" width="85px" fill="#323232" font-weight="400" align="middle" lineHeight="125%" anchor="middle" family="微软雅黑" size="13px" weight="400" font-style="" opacity="1" y="6.469594594594593" transform="rotate(0)"><tspan id="SvgjsTspan1175" dy="16.25" x="52.5"><tspan id="SvgjsTspan1176" style="">Address</tspan></tspan></text></g></g><g id="SvgjsG1177" transform="translate(937.25,163.5)"><path id="SvgjsPath1178" d="M 0 4Q 0 0 4 0L 72.5 0Q 76.5 0 76.5 4L 76.5 31Q 76.5 35 72.5 35L 4 35Q 0 35 0 31Z" stroke="none" fill-opacity="1" fill="#fcf9ea"></path><g id="SvgjsG1179"><text id="SvgjsText1180" font-family="微软雅黑" text-anchor="middle" font-size="13px" width="57px" fill="#323232" font-weight="400" align="middle" lineHeight="125%" anchor="middle" family="微软雅黑" size="13px" weight="400" font-style="" opacity="1" y="6.875" transform="rotate(0)"><tspan id="SvgjsTspan1181" dy="16.25" x="38.5"><tspan id="SvgjsTspan1182" style="">person</tspan></tspan></text></g></g><g id="SvgjsG1183" transform="translate(927.375,236)"><path id="SvgjsPath1184" d="M 0 4Q 0 0 4 0L 92.25 0Q 96.25 0 96.25 4L 96.25 31Q 96.25 35 92.25 35L 4 35Q 0 35 0 31Z" stroke="none" fill-opacity="1" fill="#fcf9ea"></path><g id="SvgjsG1185"><text id="SvgjsText1186" font-family="微软雅黑" text-anchor="middle" font-size="13px" width="77px" fill="#323232" font-weight="400" align="middle" lineHeight="125%" anchor="middle" family="微软雅黑" size="13px" weight="400" font-style="" opacity="1" y="6.875" transform="rotate(0)"><tspan id="SvgjsTspan1187" dy="16.25" x="48.5"><tspan id="SvgjsTspan1188" style="">personCopy</tspan></tspan></text></g></g><g id="SvgjsG1189" transform="translate(661.625,287.5)"><path id="SvgjsPath1190" d="M 0 4Q 0 0 4 0L 150.25 0Q 154.25 0 154.25 4L 154.25 28.95945945945948Q 154.25 32.95945945945948 150.25 32.95945945945948L 4 32.95945945945948Q 0 32.95945945945948 0 28.95945945945948Z" stroke="none" fill-opacity="1" fill="#fcf9ea"></path><g id="SvgjsG1191"><text id="SvgjsText1192" font-family="微软雅黑" text-anchor="middle" font-size="13px" width="135px" fill="#323232" font-weight="400" align="middle" lineHeight="125%" anchor="middle" family="微软雅黑" size="13px" weight="400" font-style="" opacity="1" y="5.8547297297297405" transform="rotate(0)"><tspan id="SvgjsTspan1193" dy="16.25" x="77.5"><tspan id="SvgjsTspan1194" style="">Person</tspan></tspan></text></g></g><g id="SvgjsG1195"><path id="SvgjsPath1196" d="M738.75 190.5L738.75 203.81756756756758L738.75 203.81756756756758L738.75 215.18513513513517" stroke="#323232" stroke-width="1.5" fill="none" marker-end="url(#SvgjsMarker1197)"></path></g><g id="SvgjsG1199"><path id="SvgjsPath1200" d="M738.75 287.5L738.75 273.5L738.75 273.5L738.75 261.45" stroke="#323232" stroke-width="1.5" fill="none" marker-end="url(#SvgjsMarker1201)"></path></g><g id="SvgjsG1203"><path id="SvgjsPath1204" d="M575 181L619.3125 181L619.3125 171.75L661.675 171.75" stroke="#323232" stroke-width="1.5" fill="none" marker-end="url(#SvgjsMarker1205)"></path></g><g id="SvgjsG1207"><path id="SvgjsPath1208" d="M584.875 253.5L623.25 253.5L623.25 303.97972972972974L659.675 303.97972972972974" stroke="#323232" stroke-width="1.5" fill="none" marker-end="url(#SvgjsMarker1209)"></path></g><g id="SvgjsG1211" transform="translate(1105.5,236)"><path id="SvgjsPath1212" d="M 0 4Q 0 0 4 0L 140 0Q 144 0 144 4L 144 65Q 144 69 140 69L 4 69Q 0 69 0 65Z" stroke="none" fill-opacity="1" fill="#fcf9ea"></path><g id="SvgjsG1213"><text id="SvgjsText1214" font-family="微软雅黑" text-anchor="middle" font-size="13px" width="124px" fill="#323232" font-weight="400" align="middle" lineHeight="125%" anchor="middle" family="微软雅黑" size="13px" weight="400" font-style="" opacity="1" y="23.875" transform="rotate(0)"></text></g></g><g id="SvgjsG1215" transform="translate(1105.5,236)"><path id="SvgjsPath1216" d="M 0 0L 144 0L 144 21.756756756756758L 0 21.756756756756758Z" stroke="none" fill-opacity="1" fill="#fcf9ea"></path><g id="SvgjsG1217"><text id="SvgjsText1218" font-family="微软雅黑" text-anchor="middle" font-size="13px" width="124px" fill="#323232" font-weight="400" align="middle" lineHeight="125%" anchor="middle" family="微软雅黑" size="13px" weight="400" font-style="" opacity="1" y="0.25337837837837895" transform="rotate(0)"><tspan id="SvgjsTspan1219" dy="16.25" x="72"><tspan id="SvgjsTspan1220" style="">Person</tspan></tspan></text></g></g><g id="SvgjsG1221" transform="translate(1124,258.68918918918916)"><path id="SvgjsPath1222" d="M 0 4Q 0 0 4 0L 101 0Q 105 0 105 4L 105 30.189189189189186Q 105 34.189189189189186 101 34.189189189189186L 4 34.189189189189186Q 0 34.189189189189186 0 30.189189189189186Z" stroke="none" fill-opacity="1" fill="#f1e4a2"></path><g id="SvgjsG1223"><text id="SvgjsText1224" font-family="微软雅黑" text-anchor="middle" font-size="13px" width="85px" fill="#323232" font-weight="400" align="middle" lineHeight="125%" anchor="middle" family="微软雅黑" size="13px" weight="400" font-style="" opacity="1" y="6.469594594594593" transform="rotate(0)"><tspan id="SvgjsTspan1225" dy="16.25" x="52.5"><tspan id="SvgjsTspan1226" style="">Address</tspan></tspan></text></g></g><g id="SvgjsG1227"><path id="SvgjsPath1228" d="M1013.75 181L1059.625 181L1059.625 185L1103.55 185" stroke="#323232" stroke-width="1.5" fill="none" marker-end="url(#SvgjsMarker1229)"></path></g><g id="SvgjsG1231"><path id="SvgjsPath1232" d="M1023.625 253.5L1064.5625 253.5L1064.5625 270.5L1103.55 270.5" stroke="#323232" stroke-width="1.5" fill="none" marker-end="url(#SvgjsMarker1233)"></path></g></svg>