<svg id="SvgjsSvg1006" width="1489.1760959140568" height="431" xmlns="http://www.w3.org/2000/svg" version="1.1" xmlns:xlink="http://www.w3.org/1999/xlink" xmlns:svgjs="http://svgjs.com/svgjs"><defs id="SvgjsDefs1007"><pattern patternUnits="userSpaceOnUse" id="pattern_mark_0" width="300" height="300"><text x="150" y="100" fill="rgba(229,229,229,0.8)" font-size="18" transform="rotate(-45, 150, 150)" style="dominant-baseline: middle; text-anchor: middle;"></text></pattern><pattern patternUnits="userSpaceOnUse" id="pattern_mark_1" width="300" height="300"><text x="150" y="200" fill="rgba(229,229,229,0.8)" font-size="18" transform="rotate(-45, 150, 150)" style="dominant-baseline: middle; text-anchor: middle;"></text></pattern><marker id="SvgjsMarker1089" markerWidth="14" markerHeight="10" refX="10" refY="5" viewBox="0 0 14 10" orient="auto" markerUnits="userSpaceOnUse" stroke-dasharray="0,0"><path id="SvgjsPath1090" d="M0,0 L14,5 L0,10 L0,0" fill="#323232" stroke="#323232" stroke-width="1"></path></marker><marker id="SvgjsMarker1113" markerWidth="14" markerHeight="10" refX="10" refY="5" viewBox="0 0 14 10" orient="auto" markerUnits="userSpaceOnUse" stroke-dasharray="0,0"><path id="SvgjsPath1114" d="M0,0 L14,5 L0,10 L0,0" fill="#323232" stroke="#323232" stroke-width="1"></path></marker><marker id="SvgjsMarker1127" markerWidth="14" markerHeight="10" refX="10" refY="5" viewBox="0 0 14 10" orient="auto" markerUnits="userSpaceOnUse" stroke-dasharray="0,0"><path id="SvgjsPath1128" d="M0,0 L14,5 L0,10 L0,0" fill="#323232" stroke="#323232" stroke-width="1"></path></marker><marker id="SvgjsMarker1139" markerWidth="14" markerHeight="10" refX="10" refY="5" viewBox="0 0 14 10" orient="auto" markerUnits="userSpaceOnUse" stroke-dasharray="0,0"><path id="SvgjsPath1140" d="M0,0 L14,5 L0,10 L0,0" fill="#323232" stroke="#323232" stroke-width="1"></path></marker><marker id="SvgjsMarker1143" markerWidth="14" markerHeight="10" refX="10" refY="5" viewBox="0 0 14 10" orient="auto" markerUnits="userSpaceOnUse" stroke-dasharray="0,0"><path id="SvgjsPath1144" d="M0,0 L14,5 L0,10 L0,0" fill="#323232" stroke="#323232" stroke-width="1"></path></marker><marker id="SvgjsMarker1147" markerWidth="14" markerHeight="10" refX="10" refY="5" viewBox="0 0 14 10" orient="auto" markerUnits="userSpaceOnUse" stroke-dasharray="0,0"><path id="SvgjsPath1148" d="M0,0 L14,5 L0,10 L0,0" fill="#323232" stroke="#323232" stroke-width="1"></path></marker><marker id="SvgjsMarker1157" markerWidth="14" markerHeight="10" refX="10" refY="5" viewBox="0 0 14 10" orient="auto" markerUnits="userSpaceOnUse" stroke-dasharray="0,0"><path id="SvgjsPath1158" d="M0,0 L14,5 L0,10 L0,0" fill="#323232" stroke="#323232" stroke-width="1"></path></marker></defs><rect id="svgbackgroundid" width="1489.1760959140568" height="431" fill="transparent"></rect><rect id="SvgjsRect1009" width="1489.1760959140568" height="431" fill="url(#pattern_mark_0)"></rect><rect id="SvgjsRect1010" width="1489.1760959140568" height="431" fill="url(#pattern_mark_1)"></rect><g id="SvgjsG1011" transform="translate(201.50942924738933,116.00000000000001)"><path id="SvgjsPath1012" d="M 0 0L 931.3567937438934 0L 931.3567937438934 176L 0 176Z" stroke="rgba(33,41,48,1)" stroke-width="2" fill-opacity="1" fill="#ffffcc"></path><g id="SvgjsG1013"><text id="SvgjsText1014" font-family="&quot;Microsoft YaHei&quot;, 微软雅黑, Arial" text-anchor="middle" font-size="13px" width="912px" fill="#323232" font-weight="400" align="middle" lineHeight="125%" anchor="middle" family="&quot;Microsoft YaHei&quot;, 微软雅黑, Arial" size="13px" weight="400" font-style="" opacity="1" y="77.375" transform="rotate(0)"></text></g></g><g id="SvgjsG1015" transform="translate(233.84276258072282,192)"><path id="SvgjsPath1016" d="M 0 0L 152 0L 152 83L 0 83Z" stroke="rgba(33,41,48,1)" stroke-width="2" fill-opacity="1" fill="#e6ffcc"></path><g id="SvgjsG1017"><text id="SvgjsText1018" font-family="&quot;Microsoft YaHei&quot;, 微软雅黑, Arial" text-anchor="middle" font-size="13px" width="132px" fill="#323232" font-weight="400" align="middle" lineHeight="125%" anchor="middle" family="&quot;Microsoft YaHei&quot;, 微软雅黑, Arial" size="13px" weight="400" font-style="" opacity="1" y="22.375" transform="rotate(0)"><tspan id="SvgjsTspan1019" dy="16.25" x="76"><tspan id="SvgjsTspan1020" style="">Eden</tspan></tspan><tspan id="SvgjsTspan1021" dy="16.25" x="76"><tspan id="SvgjsTspan1022" style="">8/10</tspan></tspan></text></g></g><g id="SvgjsG1023" transform="translate(453.8427625807228,192)"><path id="SvgjsPath1024" d="M 0 0L 108 0L 108 79L 0 79Z" stroke="rgba(33,41,48,1)" stroke-width="2" fill-opacity="1" fill="#e6ffcc"></path><g id="SvgjsG1025"><text id="SvgjsText1026" font-family="&quot;Microsoft YaHei&quot;, 微软雅黑, Arial" text-anchor="middle" font-size="13px" width="88px" fill="#323232" font-weight="400" align="middle" lineHeight="125%" anchor="middle" family="&quot;Microsoft YaHei&quot;, 微软雅黑, Arial" size="13px" weight="400" font-style="" opacity="1" y="20.375" transform="rotate(0)"><tspan id="SvgjsTspan1027" dy="16.25" x="54"><tspan id="SvgjsTspan1028" style="">From</tspan></tspan><tspan id="SvgjsTspan1029" dy="16.25" x="54"><tspan id="SvgjsTspan1030" style="">1/10</tspan></tspan></text></g></g><g id="SvgjsG1031" transform="translate(628.8427625807228,192)"><path id="SvgjsPath1032" d="M 0 0L 108 0L 108 79L 0 79Z" stroke="rgba(33,41,48,1)" stroke-width="2" fill-opacity="1" fill="#e6ffcc"></path><g id="SvgjsG1033"><text id="SvgjsText1034" font-family="&quot;Microsoft YaHei&quot;, 微软雅黑, Arial" text-anchor="middle" font-size="13px" width="88px" fill="#323232" font-weight="400" align="middle" lineHeight="125%" anchor="middle" family="&quot;Microsoft YaHei&quot;, 微软雅黑, Arial" size="13px" weight="400" font-style="" opacity="1" y="20.375" transform="rotate(0)"><tspan id="SvgjsTspan1035" dy="16.25" x="54"><tspan id="SvgjsTspan1036" style="">To</tspan></tspan><tspan id="SvgjsTspan1037" dy="16.25" x="54"><tspan id="SvgjsTspan1038" style="">1/10</tspan></tspan></text></g></g><g id="SvgjsG1039" transform="translate(837.2000122070306,190)"><path id="SvgjsPath1040" d="M 0 0L 242.64275037369225 0L 242.64275037369225 83L 0 83Z" stroke="rgba(33,41,48,1)" stroke-width="2" fill-opacity="1" fill="#ffe6cc"></path><g id="SvgjsG1041"><text id="SvgjsText1042" font-family="&quot;Microsoft YaHei&quot;, 微软雅黑, Arial" text-anchor="middle" font-size="13px" width="223px" fill="#323232" font-weight="400" align="middle" lineHeight="125%" anchor="middle" family="&quot;Microsoft YaHei&quot;, 微软雅黑, Arial" size="13px" weight="400" font-style="" opacity="1" y="22.375" transform="rotate(0)"><tspan id="SvgjsTspan1043" dy="16.25" x="121.5"><tspan id="SvgjsTspan1044" style="">老年代</tspan></tspan><tspan id="SvgjsTspan1045" dy="16.25" x="121.5"><tspan id="SvgjsTspan1046" style="">2/3</tspan></tspan></text></g></g><g id="SvgjsG1047" transform="translate(1079.8427625807228,118.83333333333327)"><path id="SvgjsPath1048" d="M 0 0L 52.02391629297483 0L 52.02391629297483 39L 0 39Z" stroke="none" fill="none"></path><g id="SvgjsG1049"><text id="SvgjsText1050" font-family="&quot;Microsoft YaHei&quot;, 微软雅黑, Arial" text-anchor="middle" font-size="13px" width="53px" fill="#323232" font-weight="400" align="middle" lineHeight="125%" anchor="middle" family="&quot;Microsoft YaHei&quot;, 微软雅黑, Arial" size="13px" weight="400" font-style="" opacity="1" y="8.875" transform="rotate(0)"><tspan id="SvgjsTspan1051" dy="16.25" x="26.5"><tspan id="SvgjsTspan1052" style="">堆</tspan></tspan></text></g></g><g id="SvgjsG1053" transform="matrix(-1.8369701987210297e-16,-1,1,-1.8369701987210297e-16,495.8427734375,105.00000000000001)"><path id="SvgjsPath1054" d="M 0 217Q 3 217 3 208L 3 117.5Q 3 108.5 22 108.5Q 3 108.5 3 99.5L 3 9Q 3 0 0 0" stroke="rgba(33,41,48,1)" stroke-width="2" fill="none"></path><path id="SvgjsPath1055" d="M 0 0L 30 0L 30 217L 0 217Z" stroke="none" fill="none"></path><g id="SvgjsG1056"><text id="SvgjsText1057" font-family="&quot;Microsoft YaHei&quot;, 微软雅黑, Arial" text-anchor="start" font-size="13px" width="3px" fill="#323232" font-weight="400" align="middle" lineHeight="125%" anchor="start" family="&quot;Microsoft YaHei&quot;, 微软雅黑, Arial" size="13px" weight="400" font-style="" opacity="1" y="97.875" transform="rotate(0)"></text></g></g><g id="SvgjsG1058" transform="translate(544.3427625807228,40.000000000000014)"><path id="SvgjsPath1059" d="M 0 0L 120 0L 120 40L 0 40Z" stroke="none" fill="none"></path><g id="SvgjsG1060"><text id="SvgjsText1061" font-family="&quot;Microsoft YaHei&quot;, 微软雅黑, Arial" text-anchor="middle" font-size="16px" width="120px" fill="#323232" font-weight="700" align="middle" lineHeight="125%" anchor="middle" family="&quot;Microsoft YaHei&quot;, 微软雅黑, Arial" size="16px" weight="700" font-style="" opacity="1" y="6" transform="rotate(0)"><tspan id="SvgjsTspan1062" dy="20" x="60"><tspan id="SvgjsTspan1063" style="">Survivor区</tspan></tspan></text></g></g><g id="SvgjsG1064" transform="matrix(-1.8369701987210297e-16,-1,1,-1.8369701987210297e-16,301.5094197591145,328.00000254313164)"><path id="SvgjsPath1065" d="M 25 0Q 22.5 0 22.5 9L 22.5 187.66666666666674Q 22.5 196.66666666666674 3 196.66666666666674Q 22.5 196.66666666666674 22.5 205.66666666666674L 22.5 384.3333333333335Q 22.5 393.3333333333335 25 393.3333333333335" stroke="rgba(33,41,48,1)" stroke-width="2" fill="none"></path><path id="SvgjsPath1066" d="M 0 0L 25 0L 25 393.3333333333335L 0 393.3333333333335Z" stroke="none" fill="none"></path><g id="SvgjsG1067"><text id="SvgjsText1068" font-family="&quot;Microsoft YaHei&quot;, 微软雅黑, Arial" text-anchor="end" font-size="13px" width="0" fill="#323232" font-weight="400" align="middle" lineHeight="125%" anchor="end" family="&quot;Microsoft YaHei&quot;, 微软雅黑, Arial" size="13px" weight="400" font-style="" opacity="1" y="186.04166666666674" transform="rotate(0)"></text></g></g><g id="SvgjsG1069" transform="translate(431.6760959140562,338)"><path id="SvgjsPath1070" d="M 0 0L 120 0L 120 40L 0 40Z" stroke="none" fill="none"></path><g id="SvgjsG1071"><text id="SvgjsText1072" font-family="&quot;Microsoft YaHei&quot;, 微软雅黑, Arial" text-anchor="middle" font-size="16px" width="120px" fill="#323232" font-weight="700" align="middle" lineHeight="125%" anchor="middle" family="&quot;Microsoft YaHei&quot;, 微软雅黑, Arial" size="16px" weight="700" font-style="" opacity="1" y="6" transform="rotate(0)"><tspan id="SvgjsTspan1073" dy="20" x="60"><tspan id="SvgjsTspan1074" style="">新生代</tspan></tspan></text></g></g><g id="SvgjsG1075" transform="translate(1019.2554216179899,244)"><path id="SvgjsPath1076" d="M 0 13C 0 -4.333333333333333 57.05493607991707 -4.333333333333333 57.05493607991707 13C 57.05493607991707 30.333333333333332 0 30.333333333333332 0 13Z" stroke="rgba(33,41,48,1)" stroke-width="2" fill-opacity="1" fill="#ffffff"></path><g id="SvgjsG1077"><text id="SvgjsText1078" font-family="&quot;Microsoft YaHei&quot;, 微软雅黑, Arial" text-anchor="middle" font-size="13px" width="38px" fill="#323232" font-weight="400" align="middle" lineHeight="125%" anchor="middle" family="&quot;Microsoft YaHei&quot;, 微软雅黑, Arial" size="13px" weight="400" font-style="" opacity="1" y="2.375" transform="rotate(0)"><tspan id="SvgjsTspan1079" dy="16.25" x="29"><tspan id="SvgjsTspan1080" style="">15</tspan></tspan></text></g></g><g id="SvgjsG1081" transform="translate(676.3427625807228,247)"><path id="SvgjsPath1082" d="M 0 11.5C 0 -3.8333333333333335 58 -3.8333333333333335 58 11.5C 58 26.833333333333332 0 26.833333333333332 0 11.5Z" stroke="rgba(33,41,48,1)" stroke-width="2" fill-opacity="1" fill="#ffffff"></path><g id="SvgjsG1083"><text id="SvgjsText1084" font-family="&quot;Microsoft YaHei&quot;, 微软雅黑, Arial" text-anchor="middle" font-size="13px" width="38px" fill="#323232" font-weight="400" align="middle" lineHeight="125%" anchor="middle" family="&quot;Microsoft YaHei&quot;, 微软雅黑, Arial" size="13px" weight="400" font-style="" opacity="1" y="0.875" transform="rotate(0)"><tspan id="SvgjsTspan1085" dy="16.25" x="29"><tspan id="SvgjsTspan1086" style="">1</tspan></tspan></text></g></g><g id="SvgjsG1087"><path id="SvgjsPath1088" d="M1080.8427625807228 231.5L1137.8427625807228 231.5L1137.8427625807228 231.5L1193.242762580723 231.5" stroke="#323232" stroke-width="2" fill="none" marker-end="url(#SvgjsMarker1089)"></path><rect id="SvgjsRect1091" width="52" height="18" x="1115.8875901669298" y="222.5" fill="#ffffff"></rect><text id="SvgjsText1092" font-family="&quot;Microsoft YaHei&quot;, 微软雅黑, Arial" text-anchor="middle" font-size="13px" width="52px" fill="#323232" font-weight="400" align="top" lineHeight="16px" anchor="middle" family="&quot;Microsoft YaHei&quot;, 微软雅黑, Arial" size="13px" weight="400" font-style="" opacity="1" y="219.875" transform="rotate(0)"><tspan id="SvgjsTspan1093" dy="16.25" x="1141.8875901669298"><tspan id="SvgjsTspan1094" style="">满后触发</tspan></tspan></text></g><g id="SvgjsG1095" transform="translate(1195.8427625807228,181.5)"><path id="SvgjsPath1096" d="M 0 0L 64 0L 80 16L 80 100L 0 100L 0 0Z" stroke="none" fill-opacity="1" fill="#ffffaa"></path><path id="SvgjsPath1097" d="M 64 0L 64 16L 80 16Z" stroke="none" fill-opacity="1" fill="#cdcd78"></path><path id="SvgjsPath1098" d="M 0 0L 64 0L 80 16L 80 100L 0 100L 0 0Z" stroke="none" fill="none"></path><g id="SvgjsG1099"><text id="SvgjsText1100" font-family="&quot;Microsoft YaHei&quot;, 微软雅黑, Arial" text-anchor="middle" font-size="13px" width="60px" fill="#323232" font-weight="400" align="middle" lineHeight="125%" anchor="middle" family="&quot;Microsoft YaHei&quot;, 微软雅黑, Arial" size="13px" weight="400" font-style="" opacity="1" y="39.375" transform="rotate(0)"><tspan id="SvgjsTspan1101" dy="16.25" x="40"><tspan id="SvgjsTspan1102" style="">full GC</tspan></tspan></text></g></g><g id="SvgjsG1103" transform="translate(1384.1760959140568,181.5)"><path id="SvgjsPath1104" d="M 0 0L 64 0L 80 16L 80 100L 0 100L 0 0Z" stroke="none" fill-opacity="1" fill="#ffffaa"></path><path id="SvgjsPath1105" d="M 64 0L 64 16L 80 16Z" stroke="none" fill-opacity="1" fill="#cdcd78"></path><path id="SvgjsPath1106" d="M 0 0L 64 0L 80 16L 80 100L 0 100L 0 0Z" stroke="none" fill="none"></path><g id="SvgjsG1107"><text id="SvgjsText1108" font-family="&quot;Microsoft YaHei&quot;, 微软雅黑, Arial" text-anchor="middle" font-size="13px" width="60px" fill="#323232" font-weight="400" align="middle" lineHeight="125%" anchor="middle" family="&quot;Microsoft YaHei&quot;, 微软雅黑, Arial" size="13px" weight="400" font-style="" opacity="1" y="39.375" transform="rotate(0)"><tspan id="SvgjsTspan1109" dy="16.25" x="40"><tspan id="SvgjsTspan1110" style="">OOM</tspan></tspan></text></g></g><g id="SvgjsG1111"><path id="SvgjsPath1112" d="M1275.8427625807228 231.5L1330.0094292473898 231.5L1330.0094292473898 231.5L1381.5760959140569 231.5" stroke="#323232" stroke-width="2" fill="none" marker-end="url(#SvgjsMarker1113)"></path><rect id="SvgjsRect1115" width="65" height="18" x="1281.2983181362786" y="222.5" fill="#ffffff"></rect><text id="SvgjsText1116" font-family="&quot;Microsoft YaHei&quot;, 微软雅黑, Arial" text-anchor="middle" font-size="13px" width="65px" fill="#323232" font-weight="400" align="top" lineHeight="16px" anchor="middle" family="&quot;Microsoft YaHei&quot;, 微软雅黑, Arial" size="13px" weight="400" font-style="" opacity="1" y="219.875" transform="rotate(0)"><tspan id="SvgjsTspan1117" dy="16.25" x="1313.7983181362786"><tspan id="SvgjsTspan1118" style="">执行完还满</tspan></tspan></text></g><g id="SvgjsG1119" transform="translate(1173.8427625807228,355.5)"><path id="SvgjsPath1120" d="M 0 0L 124 0L 124 50.5L 0 50.5Z" stroke="rgba(33,41,48,1)" stroke-width="2" fill-opacity="1" fill="#ffffff"></path><g id="SvgjsG1121"><text id="SvgjsText1122" font-family="&quot;Microsoft YaHei&quot;, 微软雅黑, Arial" text-anchor="middle" font-size="13px" width="104px" fill="#323232" font-weight="400" align="middle" lineHeight="125%" anchor="middle" family="&quot;Microsoft YaHei&quot;, 微软雅黑, Arial" size="13px" weight="400" font-style="" opacity="1" y="14.625" transform="rotate(0)"><tspan id="SvgjsTspan1123" dy="16.25" x="62"><tspan id="SvgjsTspan1124" style="">Stop The World</tspan></tspan></text></g></g><g id="SvgjsG1125"><path id="SvgjsPath1126" d="M1235.8427625807228 281.5L1235.8427625807228 318.5L1235.8427625807228 318.5L1235.8427625807228 351.9" stroke="#323232" stroke-width="2" fill="none" marker-end="url(#SvgjsMarker1127)"></path></g><g id="SvgjsG1129" transform="translate(25,209.25)"><path id="SvgjsPath1130" d="M 0 0L 89.64275037369157 0L 105.64275037369157 16L 105.64275037369157 48.5L 0 48.5L 0 0Z" stroke="none" fill-opacity="1" fill="#ffffaa"></path><path id="SvgjsPath1131" d="M 89.64275037369157 0L 89.64275037369157 16L 105.64275037369157 16Z" stroke="none" fill-opacity="1" fill="#cdcd78"></path><path id="SvgjsPath1132" d="M 0 0L 89.64275037369157 0L 105.64275037369157 16L 105.64275037369157 48.5L 0 48.5L 0 0Z" stroke="none" fill="none"></path><g id="SvgjsG1133"><text id="SvgjsText1134" font-family="&quot;Microsoft YaHei&quot;, 微软雅黑, Arial" text-anchor="middle" font-size="13px" width="86px" fill="#323232" font-weight="400" align="middle" lineHeight="125%" anchor="middle" family="&quot;Microsoft YaHei&quot;, 微软雅黑, Arial" size="13px" weight="400" font-style="" opacity="1" y="13.625" transform="rotate(0)"><tspan id="SvgjsTspan1135" dy="16.25" x="53"><tspan id="SvgjsTspan1136" style="">Minor GC</tspan></tspan></text></g></g><g id="SvgjsG1137"><path id="SvgjsPath1138" d="M232.84276258072282 233.5L182.2427564772072 233.5L182.2427564772072 233.5L133.24275037369156 233.5" stroke="#323232" stroke-width="2" fill="none" marker-end="url(#SvgjsMarker1139)"></path></g><g id="SvgjsG1141"><path id="SvgjsPath1142" d="M77.82137518684578 209.25L77.82137518684578 162L507.8427625807228 162L507.8427625807228 188.40000000000003" stroke="#323232" stroke-width="2" fill="none" marker-end="url(#SvgjsMarker1143)"></path></g><g id="SvgjsG1145"><path id="SvgjsPath1146" d="M77.82137518684578 209.25L77.82137518684578 162L682.8427625807228 162L682.8427625807228 188.40000000000003" stroke="#323232" stroke-width="2" fill="none" marker-end="url(#SvgjsMarker1147)"></path></g><g id="SvgjsG1149" transform="translate(204.81413738609928,27.500000000000014)"><path id="SvgjsPath1150" d="M 0 0L 139.86195852795692 0L 139.86195852795692 65L 0 65Z" stroke="rgba(33,41,48,1)" stroke-width="2" fill-opacity="1" fill="#ff3333"></path><g id="SvgjsG1151"><text id="SvgjsText1152" font-family="&quot;Microsoft YaHei&quot;, 微软雅黑, Arial" text-anchor="middle" font-size="13px" width="120px" fill="#3333ff" font-weight="400" align="middle" lineHeight="125%" anchor="middle" family="&quot;Microsoft YaHei&quot;, 微软雅黑, Arial" size="13px" weight="400" font-style="" opacity="1" y="21.875" transform="rotate(0)"><tspan id="SvgjsTspan1153" dy="16.25" x="70"><tspan id="SvgjsTspan1154" style="">堆分区与垃圾回收</tspan></tspan></text></g></g><g id="SvgjsG1155"><path id="SvgjsPath1156" d="M706.038212538392 270.7185745308442C 770.8427625807228 344.66666666666674 955.8427625807228 340.66666666666674 1044.8590846335449 272.1003247794743" stroke="#323232" stroke-width="2" fill="none" marker-end="url(#SvgjsMarker1157)"></path></g><g id="SvgjsG1159" transform="translate(796.6760959140562,332.66666666666674)"><path id="SvgjsPath1160" d="M 0 0L 120 0L 120 40L 0 40Z" stroke="none" fill="none"></path><g id="SvgjsG1161"><text id="SvgjsText1162" font-family="&quot;Microsoft YaHei&quot;, 微软雅黑, Arial" text-anchor="middle" font-size="13px" width="120px" fill="#323232" font-weight="400" align="middle" lineHeight="125%" anchor="middle" family="&quot;Microsoft YaHei&quot;, 微软雅黑, Arial" size="13px" weight="400" font-style="" opacity="1" y="9.375" transform="rotate(0)"><tspan id="SvgjsTspan1163" dy="16.25" x="60"><tspan id="SvgjsTspan1164" style="">满15次后转入老年代</tspan></tspan></text></g></g><g id="SvgjsG1165" transform="translate(84.81413738609928,257.75)"><path id="SvgjsPath1166" d="M 0 0L 120 0L 120 40L 0 40Z" stroke="none" fill="none"></path><g id="SvgjsG1167"><text id="SvgjsText1168" font-family="&quot;Microsoft YaHei&quot;, 微软雅黑, Arial" text-anchor="middle" font-size="13px" width="120px" fill="#323232" font-weight="400" align="middle" lineHeight="125%" anchor="middle" family="&quot;Microsoft YaHei&quot;, 微软雅黑, Arial" size="13px" weight="400" font-style="" opacity="1" y="9.375" transform="rotate(0)"><tspan id="SvgjsTspan1169" dy="16.25" x="60"><tspan id="SvgjsTspan1170" style="">Eden区满后触发</tspan></tspan></text></g></g><g id="SvgjsG1171"></g></svg>