<svg id="SvgjsSvg1006" width="915" height="430.16666666666674" xmlns="http://www.w3.org/2000/svg" version="1.1" xmlns:xlink="http://www.w3.org/1999/xlink" xmlns:svgjs="http://svgjs.com/svgjs"><defs id="SvgjsDefs1007"><pattern patternUnits="userSpaceOnUse" id="pattern_mark_0" width="300" height="300"><text x="150" y="100" fill="rgba(229,229,229,0.8)" font-size="18" transform="rotate(-45, 150, 150)" style="dominant-baseline: middle; text-anchor: middle;"></text></pattern><pattern patternUnits="userSpaceOnUse" id="pattern_mark_1" width="300" height="300"><text x="150" y="200" fill="rgba(229,229,229,0.8)" font-size="18" transform="rotate(-45, 150, 150)" style="dominant-baseline: middle; text-anchor: middle;"></text></pattern><marker id="SvgjsMarker1047" markerWidth="14" markerHeight="10" refX="10" refY="5" viewBox="0 0 14 10" orient="auto" markerUnits="userSpaceOnUse" stroke-dasharray="0,0"><path id="SvgjsPath1048" d="M0,0 L14,5 L0,10 L0,0" fill="#323232" stroke="#323232" stroke-width="1"></path></marker><marker id="SvgjsMarker1051" markerWidth="14" markerHeight="10" refX="10" refY="5" viewBox="0 0 14 10" orient="auto" markerUnits="userSpaceOnUse" stroke-dasharray="0,0"><path id="SvgjsPath1052" d="M0,0 L14,5 L0,10 L0,0" fill="#323232" stroke="#323232" stroke-width="1"></path></marker><marker id="SvgjsMarker1055" markerWidth="14" markerHeight="10" refX="10" refY="5" viewBox="0 0 14 10" orient="auto" markerUnits="userSpaceOnUse" stroke-dasharray="0,0"><path id="SvgjsPath1056" d="M0,0 L14,5 L0,10 L0,0" fill="#323232" stroke="#323232" stroke-width="1"></path></marker><marker id="SvgjsMarker1059" markerWidth="14" markerHeight="10" refX="10" refY="5" viewBox="0 0 14 10" orient="auto" markerUnits="userSpaceOnUse" stroke-dasharray="0,0"><path id="SvgjsPath1060" d="M0,0 L14,5 L0,10 L0,0" fill="#323232" stroke="#323232" stroke-width="1"></path></marker><marker id="SvgjsMarker1063" markerWidth="14" markerHeight="10" refX="10" refY="5" viewBox="0 0 14 10" orient="auto" markerUnits="userSpaceOnUse" stroke-dasharray="0,0"><path id="SvgjsPath1064" d="M0,0 L14,5 L0,10 L0,0" fill="#323232" stroke="#323232" stroke-width="1"></path></marker><marker id="SvgjsMarker1067" markerWidth="14" markerHeight="10" refX="10" refY="5" viewBox="0 0 14 10" orient="auto" markerUnits="userSpaceOnUse" stroke-dasharray="0,0"><path id="SvgjsPath1068" d="M0,0 L14,5 L0,10 L0,0" fill="#323232" stroke="#323232" stroke-width="1"></path></marker></defs><rect id="svgbackgroundid" width="915" height="430.16666666666674" fill="transparent"></rect><rect id="SvgjsRect1009" width="915" height="430.16666666666674" fill="url(#pattern_mark_0)"></rect><rect id="SvgjsRect1010" width="915" height="430.16666666666674" fill="url(#pattern_mark_1)"></rect><g id="SvgjsG1011" transform="translate(223.39999961853027,58.16666666666674)"><path id="SvgjsPath1012" d="M 0 0L 100 0L 100 70L 0 70Z" stroke="rgba(33,41,48,1)" stroke-width="2" fill-opacity="1" fill="#ffffff"></path><g id="SvgjsG1013"><text id="SvgjsText1014" font-family="&quot;Microsoft YaHei&quot;, 微软雅黑, Arial" text-anchor="middle" font-size="13px" width="80px" fill="#323232" font-weight="400" align="middle" lineHeight="125%" anchor="middle" family="&quot;Microsoft YaHei&quot;, 微软雅黑, Arial" size="13px" weight="400" font-style="" opacity="1" y="24.375" transform="rotate(0)"><tspan id="SvgjsTspan1015" dy="16.25" x="50"><tspan id="SvgjsTspan1016" style="">GC root根</tspan></tspan></text></g></g><g id="SvgjsG1017" transform="translate(132.39999961853027,205.16666666666674)"><path id="SvgjsPath1018" d="M 0 35C 0 -11.666666666666666 70 -11.666666666666666 70 35C 70 81.66666666666667 0 81.66666666666667 0 35Z" stroke="rgba(33,41,48,1)" stroke-width="2" fill-opacity="1" fill="#ffffff"></path><g id="SvgjsG1019"><text id="SvgjsText1020" font-family="&quot;Microsoft YaHei&quot;, 微软雅黑, Arial" text-anchor="middle" font-size="13px" width="50px" fill="#323232" font-weight="400" align="middle" lineHeight="125%" anchor="middle" family="&quot;Microsoft YaHei&quot;, 微软雅黑, Arial" size="13px" weight="400" font-style="" opacity="1" y="24.375" transform="rotate(0)"></text></g></g><g id="SvgjsG1021" transform="translate(302.83333333333337,214.16666666666674)"><path id="SvgjsPath1022" d="M 0 35C 0 -11.666666666666666 70 -11.666666666666666 70 35C 70 81.66666666666667 0 81.66666666666667 0 35Z" stroke="rgba(33,41,48,1)" stroke-width="2" fill-opacity="1" fill="#ffffff"></path><g id="SvgjsG1023"><text id="SvgjsText1024" font-family="&quot;Microsoft YaHei&quot;, 微软雅黑, Arial" text-anchor="middle" font-size="13px" width="50px" fill="#323232" font-weight="400" align="middle" lineHeight="125%" anchor="middle" family="&quot;Microsoft YaHei&quot;, 微软雅黑, Arial" size="13px" weight="400" font-style="" opacity="1" y="24.375" transform="rotate(0)"></text></g></g><g id="SvgjsG1025" transform="translate(333.83333333333337,335.16666666666674)"><path id="SvgjsPath1026" d="M 0 35C 0 -11.666666666666666 70 -11.666666666666666 70 35C 70 81.66666666666667 0 81.66666666666667 0 35Z" stroke="rgba(33,41,48,1)" stroke-width="2" fill-opacity="1" fill="#ffffff"></path><g id="SvgjsG1027"><text id="SvgjsText1028" font-family="&quot;Microsoft YaHei&quot;, 微软雅黑, Arial" text-anchor="middle" font-size="13px" width="50px" fill="#323232" font-weight="400" align="middle" lineHeight="125%" anchor="middle" family="&quot;Microsoft YaHei&quot;, 微软雅黑, Arial" size="13px" weight="400" font-style="" opacity="1" y="24.375" transform="rotate(0)"></text></g></g><g id="SvgjsG1029" transform="translate(137.83333333333337,327.16666666666674)"><path id="SvgjsPath1030" d="M 0 35C 0 -11.666666666666666 70 -11.666666666666666 70 35C 70 81.66666666666667 0 81.66666666666667 0 35Z" stroke="rgba(33,41,48,1)" stroke-width="2" fill-opacity="1" fill="#ffffff"></path><g id="SvgjsG1031"><text id="SvgjsText1032" font-family="&quot;Microsoft YaHei&quot;, 微软雅黑, Arial" text-anchor="middle" font-size="13px" width="50px" fill="#323232" font-weight="400" align="middle" lineHeight="125%" anchor="middle" family="&quot;Microsoft YaHei&quot;, 微软雅黑, Arial" size="13px" weight="400" font-style="" opacity="1" y="24.375" transform="rotate(0)"></text></g></g><g id="SvgjsG1033" transform="translate(593.8333333333334,309.16666666666674)"><path id="SvgjsPath1034" d="M 0 35C 0 -11.666666666666666 70 -11.666666666666666 70 35C 70 81.66666666666667 0 81.66666666666667 0 35Z" stroke="rgba(33,41,48,1)" stroke-width="2" fill-opacity="1" fill="#ffffff"></path><g id="SvgjsG1035"><text id="SvgjsText1036" font-family="&quot;Microsoft YaHei&quot;, 微软雅黑, Arial" text-anchor="middle" font-size="13px" width="50px" fill="#323232" font-weight="400" align="middle" lineHeight="125%" anchor="middle" family="&quot;Microsoft YaHei&quot;, 微软雅黑, Arial" size="13px" weight="400" font-style="" opacity="1" y="24.375" transform="rotate(0)"></text></g></g><g id="SvgjsG1037" transform="translate(689.8333333333334,204.16666666666674)"><path id="SvgjsPath1038" d="M 0 35C 0 -11.666666666666666 70 -11.666666666666666 70 35C 70 81.66666666666667 0 81.66666666666667 0 35Z" stroke="rgba(33,41,48,1)" stroke-width="2" fill-opacity="1" fill="#ffffff"></path><g id="SvgjsG1039"><text id="SvgjsText1040" font-family="&quot;Microsoft YaHei&quot;, 微软雅黑, Arial" text-anchor="middle" font-size="13px" width="50px" fill="#323232" font-weight="400" align="middle" lineHeight="125%" anchor="middle" family="&quot;Microsoft YaHei&quot;, 微软雅黑, Arial" size="13px" weight="400" font-style="" opacity="1" y="24.375" transform="rotate(0)"></text></g></g><g id="SvgjsG1041" transform="translate(537.5,188.16666666666674)"><path id="SvgjsPath1042" d="M 0 35C 0 -11.666666666666666 70 -11.666666666666666 70 35C 70 81.66666666666667 0 81.66666666666667 0 35Z" stroke="rgba(33,41,48,1)" stroke-width="2" fill-opacity="1" fill="#ffffff"></path><g id="SvgjsG1043"><text id="SvgjsText1044" font-family="&quot;Microsoft YaHei&quot;, 微软雅黑, Arial" text-anchor="middle" font-size="13px" width="50px" fill="#323232" font-weight="400" align="middle" lineHeight="125%" anchor="middle" family="&quot;Microsoft YaHei&quot;, 微软雅黑, Arial" size="13px" weight="400" font-style="" opacity="1" y="24.375" transform="rotate(0)"></text></g></g><g id="SvgjsG1045"><path id="SvgjsPath1046" d="M273.2111184288375 129.14866661380535C 273.3999996185303 180.24967733233393 172.9393330976307 153.28184758087332 169.38529096236914 201.70412410840754" stroke="#323232" stroke-width="2" fill="none" marker-end="url(#SvgjsMarker1047)"></path></g><g id="SvgjsG1049"><path id="SvgjsPath1050" d="M292.5509410252739 128.15520937779775C 292.3999996185303 166.42618844152412 341.25502611353886 175.0565392249364 337.5851779713877 210.57522977924447" stroke="#323232" stroke-width="2" fill="none" marker-end="url(#SvgjsMarker1051)"></path></g><g id="SvgjsG1053"><path id="SvgjsPath1054" d="M338.1626848107874 285.1108740614158C 339.91400214447106 307.9488200026949 370.91400214447106 311.3845133306386 368.1799924535305 331.6264483549269" stroke="#323232" stroke-width="2" fill="none" marker-end="url(#SvgjsMarker1055)"></path></g><g id="SvgjsG1057"><path id="SvgjsPath1058" d="M301.8643963959414 249.41397459488064C 244.00687658526937 254.3133147475205 266.6597900813974 367.3133147475205 211.42316390837252 361.8962661442668" stroke="#323232" stroke-width="2" fill="none" marker-end="url(#SvgjsMarker1059)"></path></g><g id="SvgjsG1061"><path id="SvgjsPath1062" d="M565.7396375902385 257.1679863842555C 559.8420256195864 288.6875035607852 631.710091354426 276.28517202318926 627.937563595376 305.67989214333437" stroke="#323232" stroke-width="2" fill="none" marker-end="url(#SvgjsMarker1063)"></path></g><g id="SvgjsG1065"><path id="SvgjsPath1066" d="M705.5009054196494 268.21755119325684C 688.3751712042771 297.6545344702954 698.7496156358266 347.2214455406058 667.4046806978208 343.71336985202043" stroke="#323232" stroke-width="2" fill="none" marker-end="url(#SvgjsMarker1067)"></path></g><g id="SvgjsG1069" transform="translate(328.3999996185304,65.66666666666674)"><path id="SvgjsPath1070" d="M 0 0L 153.26666704813658 0L 153.26666704813658 55L 0 55Z" stroke="none" fill="none"></path><g id="SvgjsG1071"><text id="SvgjsText1072" font-family="&quot;Microsoft YaHei&quot;, 微软雅黑, Arial" text-anchor="middle" font-size="13px" width="154px" fill="#323232" font-weight="400" align="middle" lineHeight="125%" anchor="middle" family="&quot;Microsoft YaHei&quot;, 微软雅黑, Arial" size="13px" weight="400" font-style="" opacity="1" y="0.375" transform="rotate(0)"><tspan id="SvgjsTspan1073" dy="16.25" x="77"><tspan id="SvgjsTspan1074" style="">方法区的静态变量、常量</tspan></tspan><tspan id="SvgjsTspan1075" dy="16.25" x="77"><tspan id="SvgjsTspan1076" style="">局部变量表中的局部变量</tspan></tspan><tspan id="SvgjsTspan1077" dy="16.25" x="77"><tspan id="SvgjsTspan1078" style="">本地方法区的本地方法</tspan></tspan></text></g></g><g id="SvgjsG1079"><path id="SvgjsPath1080" d="M25 142.16666666666674L457.5 142.16666666666674L457.5 142.16666666666674L890 142.16666666666674" stroke-dasharray="2,3" stroke="#323232" stroke-width="2" fill="none"></path></g><g id="SvgjsG1081" transform="translate(36.64275037369157,154.33333333333348)"><path id="SvgjsPath1082" d="M 0 0L 64 0L 80 16L 80 100L 0 100L 0 0Z" stroke="none" fill-opacity="1" fill="#ffffaa"></path><path id="SvgjsPath1083" d="M 64 0L 64 16L 80 16Z" stroke="none" fill-opacity="1" fill="#cdcd78"></path><path id="SvgjsPath1084" d="M 0 0L 64 0L 80 16L 80 100L 0 100L 0 0Z" stroke="none" fill="none"></path><g id="SvgjsG1085"><text id="SvgjsText1086" font-family="&quot;Microsoft YaHei&quot;, 微软雅黑, Arial" text-anchor="middle" font-size="13px" width="60px" fill="#323232" font-weight="400" align="middle" lineHeight="125%" anchor="middle" family="&quot;Microsoft YaHei&quot;, 微软雅黑, Arial" size="13px" weight="400" font-style="" opacity="1" y="39.375" transform="rotate(0)"><tspan id="SvgjsTspan1087" dy="16.25" x="40"><tspan id="SvgjsTspan1088" style="">正常对象</tspan></tspan></text></g></g><g id="SvgjsG1089" transform="translate(779.8333333333334,160.33333333333348)"><path id="SvgjsPath1090" d="M 0 0L 75.690582959641 0L 91.690582959641 16L 91.690582959641 83.83333333333326L 0 83.83333333333326L 0 0Z" stroke="none" fill-opacity="1" fill="#ffffaa"></path><path id="SvgjsPath1091" d="M 75.690582959641 0L 75.690582959641 16L 91.690582959641 16Z" stroke="none" fill-opacity="1" fill="#cdcd78"></path><path id="SvgjsPath1092" d="M 0 0L 75.690582959641 0L 91.690582959641 16L 91.690582959641 83.83333333333326L 0 83.83333333333326L 0 0Z" stroke="none" fill="none"></path><g id="SvgjsG1093"><text id="SvgjsText1094" font-family="&quot;Microsoft YaHei&quot;, 微软雅黑, Arial" text-anchor="middle" font-size="13px" width="72px" fill="#323232" font-weight="400" align="middle" lineHeight="125%" anchor="middle" family="&quot;Microsoft YaHei&quot;, 微软雅黑, Arial" size="13px" weight="400" font-style="" opacity="1" y="22.79166666666663" transform="rotate(0)"><tspan id="SvgjsTspan1095" dy="16.25" x="46"><tspan id="SvgjsTspan1096" style="">可被回收的</tspan></tspan><tspan id="SvgjsTspan1097" dy="16.25" x="46"><tspan id="SvgjsTspan1098" style="">垃圾对象</tspan></tspan></text></g></g><g id="SvgjsG1099" transform="translate(52.804708138709486,25)"><path id="SvgjsPath1100" d="M 0 0L 139.86195852795692 0L 139.86195852795692 65L 0 65Z" stroke="rgba(33,41,48,1)" stroke-width="2" fill-opacity="1" fill="#ff3333"></path><g id="SvgjsG1101"><text id="SvgjsText1102" font-family="&quot;Microsoft YaHei&quot;, 微软雅黑, Arial" text-anchor="middle" font-size="13px" width="120px" fill="#3333ff" font-weight="400" align="middle" lineHeight="125%" anchor="middle" family="&quot;Microsoft YaHei&quot;, 微软雅黑, Arial" size="13px" weight="400" font-style="" opacity="1" y="21.875" transform="rotate(0)"><tspan id="SvgjsTspan1103" dy="16.25" x="70"><tspan id="SvgjsTspan1104" style="">垃圾回收可达性分析</tspan></tspan></text></g></g><g id="SvgjsG1105"></g></svg>